# Blender v2.92.0 OBJ File: 'New Nilfgaardian model work.blend'
# www.blender.org
mtllib arms.mtl
o Arms_Lower_plate_done.084
v -0.203293 0.572466 0.059539
v -0.203384 0.587496 0.024082
v -0.198265 0.568268 0.046172
v -0.197668 0.566665 0.061649
v -0.194642 0.559565 0.080548
v -0.220936 0.516702 0.103970
v -0.309666 0.560367 0.064855
v -0.417444 0.549986 0.064220
v -0.309903 0.578119 0.023766
v -0.322947 0.529927 0.080136
v -0.344109 0.508036 0.095416
v -0.418842 0.509936 0.080511
v -0.420240 0.469886 0.096802
v -0.558063 0.512192 0.072244
v -0.557054 0.543360 0.058104
v -0.559072 0.481025 0.086384
v -0.642591 0.503663 0.062144
v -0.642737 0.524141 0.052123
v -0.642446 0.483185 0.072164
v -0.642488 0.473024 0.059784
v -0.642779 0.461831 0.046283
v -0.562619 0.466615 0.069938
v -0.561723 0.455508 0.057308
v -0.430856 0.445611 0.068860
v -0.343156 0.453415 0.061421
v -0.423241 0.462647 0.088559
v -0.432415 0.435771 0.058371
v -0.433248 0.420434 0.041968
v -0.341492 0.446577 0.048874
v -0.346531 0.425716 0.005777
v -0.202901 0.429565 0.044552
v -0.301398 0.425126 0.027612
v -0.204410 0.396635 0.057770
v -0.210869 0.440224 0.053731
v -0.208175 0.411956 0.029802
v -0.204314 0.396201 0.034118
v -0.204017 0.412676 0.005537
v -0.201805 0.401718 0.016108
v -0.196334 0.412085 -0.001717
v -0.189916 0.425913 -0.014607
v -0.186362 0.444759 -0.031553
v -0.201328 0.413476 -0.020613
v -0.309863 0.414372 -0.024147
v -0.200907 0.441306 -0.026626
v -0.200685 0.497566 -0.038562
v -0.178023 0.467594 -0.036001
v -0.315091 0.480157 -0.043950
v -0.203712 0.571829 -0.009804
v -0.173412 0.493058 -0.038481
v -0.179462 0.533090 -0.026686
v -0.186036 0.554151 0.000989
v -0.194019 0.564652 0.023835
v -0.203460 0.571976 0.006557
v -0.310332 0.564870 -0.012490
v -0.426036 0.549372 0.018818
v -0.558488 0.546197 0.011406
v -0.422966 0.565822 0.041058
v -0.426774 0.478237 -0.030003
v -0.430011 0.449335 0.005982
v -0.555351 0.487729 -0.027561
v -0.557410 0.460968 0.002307
v -0.642544 0.490813 -0.023977
v -0.642880 0.467243 0.000140
v -0.643119 0.534703 -0.004314
v -0.642593 0.541836 0.032115
v -0.556238 0.556181 0.037155
v -0.643216 0.443673 0.024256
v -0.559469 0.434207 0.032175
v -0.359871 0.457067 -0.019086
v -0.213197 0.454662 0.066625
v -0.196577 0.420046 0.091702
v -0.202285 0.404834 0.074886
v -0.187583 0.440618 0.101903
v -0.178535 0.471404 0.107220
v -0.217780 0.477743 0.116619
v -0.173328 0.501496 0.105863
v -0.191937 0.538931 0.099267
v -0.343491 0.481674 0.113952
v -0.343693 0.465920 0.085823
v 0.203293 0.572466 0.059539
v 0.203384 0.587496 0.024082
v 0.198265 0.568268 0.046172
v 0.197668 0.566665 0.061649
v 0.194642 0.559565 0.080548
v 0.220936 0.516702 0.103970
v 0.309666 0.560367 0.064855
v 0.417444 0.549986 0.064220
v 0.309903 0.578119 0.023766
v 0.322947 0.529927 0.080136
v 0.344109 0.508036 0.095416
v 0.418842 0.509936 0.080511
v 0.420240 0.469886 0.096802
v 0.558063 0.512192 0.072244
v 0.557054 0.543360 0.058104
v 0.559072 0.481025 0.086384
v 0.642591 0.503663 0.062144
v 0.642737 0.524141 0.052123
v 0.642446 0.483185 0.072164
v 0.642488 0.473024 0.059784
v 0.642779 0.461831 0.046283
v 0.562619 0.466615 0.069938
v 0.561723 0.455508 0.057308
v 0.430856 0.445611 0.068860
v 0.343156 0.453415 0.061421
v 0.423241 0.462647 0.088559
v 0.432415 0.435771 0.058371
v 0.433248 0.420434 0.041968
v 0.341492 0.446577 0.048874
v 0.346531 0.425716 0.005777
v 0.202901 0.429565 0.044552
v 0.301398 0.425126 0.027612
v 0.204410 0.396635 0.057770
v 0.210869 0.440224 0.053731
v 0.208175 0.411956 0.029802
v 0.204314 0.396201 0.034118
v 0.204017 0.412676 0.005537
v 0.201805 0.401718 0.016108
v 0.196334 0.412085 -0.001717
v 0.189916 0.425913 -0.014607
v 0.186362 0.444759 -0.031553
v 0.201328 0.413476 -0.020613
v 0.309863 0.414372 -0.024147
v 0.200907 0.441306 -0.026626
v 0.200685 0.497566 -0.038562
v 0.178023 0.467594 -0.036001
v 0.315091 0.480157 -0.043950
v 0.203712 0.571829 -0.009804
v 0.173412 0.493058 -0.038481
v 0.179462 0.533090 -0.026686
v 0.186036 0.554151 0.000989
v 0.194019 0.564652 0.023835
v 0.203460 0.571976 0.006557
v 0.310332 0.564870 -0.012490
v 0.426036 0.549372 0.018818
v 0.558488 0.546197 0.011406
v 0.422966 0.565822 0.041058
v 0.426774 0.478237 -0.030003
v 0.430011 0.449335 0.005982
v 0.555351 0.487729 -0.027561
v 0.557410 0.460968 0.002307
v 0.642544 0.490813 -0.023977
v 0.642880 0.467243 0.000140
v 0.643119 0.534703 -0.004314
v 0.642593 0.541836 0.032115
v 0.556238 0.556181 0.037155
v 0.643216 0.443673 0.024256
v 0.559469 0.434207 0.032175
v 0.359871 0.457067 -0.019086
v 0.213197 0.454662 0.066625
v 0.196577 0.420046 0.091702
v 0.202285 0.404834 0.074886
v 0.187583 0.440618 0.101903
v 0.178535 0.471404 0.107220
v 0.217780 0.477743 0.116619
v 0.173328 0.501496 0.105863
v 0.191937 0.538931 0.099267
v 0.343491 0.481674 0.113952
v 0.343693 0.465920 0.085823
vt 0.322625 0.475829
vt 0.319616 0.469928
vt 0.316689 0.460433
vt 0.327427 0.459755
vt 0.375213 0.473885
vt 0.370348 0.492888
vt 0.318894 0.476645
vt 0.315407 0.484688
vt 0.323534 0.507861
vt 0.311778 0.496006
vt 0.420526 0.505956
vt 0.425595 0.494674
vt 0.417216 0.525848
vt 0.378605 0.507440
vt 0.381541 0.520321
vt 0.414288 0.544462
vt 0.482560 0.534980
vt 0.480134 0.549436
vt 0.484956 0.520366
vt 0.523953 0.535027
vt 0.521792 0.544838
vt 0.519604 0.554643
vt 0.519420 0.561684
vt 0.481325 0.558905
vt 0.519311 0.569400
vt 0.480544 0.566168
vt 0.418921 0.567533
vt 0.418491 0.561178
vt 0.415452 0.549438
vt 0.375509 0.559736
vt 0.376963 0.547375
vt 0.374072 0.565836
vt 0.418880 0.577316
vt 0.374066 0.588062
vt 0.478768 0.580419
vt 0.351814 0.577393
vt 0.307561 0.562554
vt 0.311386 0.556901
vt 0.305319 0.572597
vt 0.293897 0.563590
vt 0.297201 0.572287
vt 0.293990 0.555333
vt 0.299841 0.579385
vt 0.304150 0.584353
vt 0.301212 0.588907
vt 0.305840 0.596181
vt 0.297902 0.598501
vt 0.303274 0.608928
vt 0.295308 0.611527
vt 0.353457 0.598213
vt 0.304811 0.636148
vt 0.291779 0.623046
vt 0.359997 0.624624
vt 0.290528 0.635644
vt 0.361295 0.663932
vt 0.311930 0.671124
vt 0.296380 0.655658
vt 0.311073 0.678541
vt 0.299865 0.672374
vt 0.312872 0.689289
vt 0.302738 0.684300
vt 0.364336 0.680145
vt 0.420551 0.658947
vt 0.416346 0.618134
vt 0.421129 0.671813
vt 0.485408 0.646638
vt 0.485951 0.659000
vt 0.479650 0.615850
vt 0.417517 0.597235
vt 0.382118 0.607735
vt 0.479210 0.598039
vt 0.521550 0.611777
vt 0.524874 0.632891
vt 0.520327 0.596881
vt 0.527051 0.649244
vt 0.487392 0.509929
vt 0.527051 0.523544
vt 0.519095 0.582005
vt 0.314259 0.548992
vt 0.295515 0.546316
vt 0.299359 0.536702
vt 0.318665 0.525567
vt 0.299677 0.523057
vt 0.300491 0.510207
vt 0.378135 0.533449
vt 0.322625 0.475829
vt 0.327427 0.459755
vt 0.316689 0.460433
vt 0.319616 0.469928
vt 0.375213 0.473885
vt 0.370348 0.492888
vt 0.318894 0.476645
vt 0.315407 0.484688
vt 0.311778 0.496006
vt 0.323534 0.507861
vt 0.420526 0.505956
vt 0.425595 0.494674
vt 0.417216 0.525848
vt 0.378605 0.507440
vt 0.381541 0.520321
vt 0.414288 0.544462
vt 0.482560 0.534980
vt 0.480134 0.549436
vt 0.484956 0.520366
vt 0.523953 0.535027
vt 0.521792 0.544838
vt 0.519604 0.554643
vt 0.481325 0.558905
vt 0.519420 0.561684
vt 0.480544 0.566168
vt 0.519311 0.569400
vt 0.418491 0.561178
vt 0.418921 0.567533
vt 0.415452 0.549438
vt 0.376963 0.547375
vt 0.375509 0.559736
vt 0.374072 0.565836
vt 0.374066 0.588062
vt 0.418880 0.577316
vt 0.478768 0.580419
vt 0.307561 0.562554
vt 0.351814 0.577393
vt 0.311386 0.556901
vt 0.305319 0.572597
vt 0.293897 0.563590
vt 0.297201 0.572287
vt 0.293990 0.555333
vt 0.299841 0.579385
vt 0.301212 0.588907
vt 0.304150 0.584353
vt 0.297902 0.598501
vt 0.305840 0.596181
vt 0.295308 0.611527
vt 0.303274 0.608928
vt 0.353457 0.598213
vt 0.291779 0.623046
vt 0.304811 0.636148
vt 0.359997 0.624624
vt 0.290528 0.635644
vt 0.311930 0.671124
vt 0.361295 0.663932
vt 0.296380 0.655658
vt 0.299865 0.672374
vt 0.311073 0.678541
vt 0.302738 0.684300
vt 0.312872 0.689289
vt 0.364336 0.680145
vt 0.420551 0.658947
vt 0.416346 0.618134
vt 0.421129 0.671813
vt 0.485408 0.646638
vt 0.485951 0.659000
vt 0.479650 0.615850
vt 0.417517 0.597235
vt 0.382118 0.607735
vt 0.479210 0.598039
vt 0.521550 0.611777
vt 0.524874 0.632891
vt 0.520327 0.596881
vt 0.527051 0.649244
vt 0.487392 0.509929
vt 0.527051 0.523544
vt 0.519095 0.582005
vt 0.314259 0.548992
vt 0.299359 0.536702
vt 0.295515 0.546316
vt 0.318665 0.525567
vt 0.299677 0.523057
vt 0.300491 0.510207
vt 0.378135 0.533449
vn 0.3146 0.8433 0.4359
vn 0.8792 0.4583 0.1306
vn 0.8583 0.5086 -0.0675
vn 0.4087 0.9069 -0.1023
vn -0.1022 0.9947 0.0110
vn -0.0783 0.7401 0.6679
vn 0.6906 0.7133 0.1196
vn -0.3608 0.6717 0.6470
vn -0.0694 0.4570 0.8868
vn -0.2590 0.5047 0.8236
vn -0.0634 0.6617 0.7471
vn -0.1018 0.9932 0.0568
vn -0.0830 0.4287 0.8996
vn -0.1039 0.4994 0.8601
vn -0.1458 0.4995 0.8539
vn -0.0854 -0.2834 0.9552
vn -0.0990 0.4080 0.9076
vn -0.1316 -0.1911 0.9727
vn -0.1210 0.6393 0.7594
vn -0.1758 0.6080 0.7742
vn -0.1493 0.4210 0.8947
vn -0.1757 -0.2047 0.9629
vn -0.1404 -0.7501 0.6462
vn -0.1272 -0.7423 0.6579
vn -0.1448 -0.7581 0.6358
vn -0.1323 -0.7491 0.6491
vn 0.0233 -0.7931 0.6086
vn -0.0043 -0.7795 0.6264
vn -0.0219 -0.7908 0.6117
vn 0.0420 -0.8125 0.5814
vn 0.0205 -0.8515 0.5240
vn 0.0298 -0.8201 0.5714
vn -0.0292 -0.9990 0.0344
vn -0.1966 -0.9653 -0.1719
vn -0.1129 -0.9936 -0.0100
vn -0.1261 -0.9244 0.3598
vn -0.7820 -0.4881 0.3877
vn -0.5876 -0.6096 0.5321
vn -0.7457 -0.6245 0.2321
vn -0.9962 -0.0869 0.0003
vn -0.9940 -0.1092 0.0035
vn -0.9886 -0.0929 0.1185
vn -0.8648 -0.4139 -0.2843
vn -0.3728 -0.9213 -0.1104
vn 0.2195 -0.9342 -0.2814
vn 0.2183 -0.7980 -0.5617
vn 0.4073 -0.6291 -0.6621
vn 0.0781 -0.2906 -0.9536
vn -0.0295 -0.2747 -0.9611
vn -0.1676 -0.8075 -0.5656
vn -0.0173 0.1054 -0.9943
vn -0.1409 -0.1566 -0.9776
vn -0.1445 -0.0132 -0.9894
vn -0.0203 0.0996 -0.9948
vn -0.1122 0.7123 -0.6928
vn 0.3020 0.7565 -0.5802
vn 0.1185 0.4245 -0.8976
vn 0.4563 0.8173 -0.3520
vn 0.7652 0.6126 -0.1979
vn -0.1031 0.7323 -0.6731
vn -0.1164 -0.1666 -0.9791
vn -0.0246 0.7816 -0.6233
vn -0.1097 0.9880 0.1085
vn -0.0124 -0.1319 -0.9912
vn -0.1102 -0.7382 -0.6655
vn -0.2433 -0.6426 -0.7265
vn -0.0435 -0.7457 -0.6649
vn -0.0045 -0.1368 -0.9906
vn -0.0310 0.7571 -0.6526
vn -0.0366 -0.7301 -0.6823
vn -0.1686 0.9699 0.1755
vn -0.1113 -0.9910 -0.0744
vn -0.4118 -0.6845 0.6016
vn -0.9150 -0.0779 0.3959
vn -0.6964 -0.4178 0.5836
vn -0.0973 -0.2779 0.9557
vn -0.1116 -0.3425 0.9329
vn 0.1129 0.1670 0.9795
vn -0.1138 -0.2283 0.9669
vn -0.3146 0.8433 0.4359
vn -0.4087 0.9069 -0.1023
vn -0.8583 0.5086 -0.0675
vn -0.8792 0.4583 0.1306
vn 0.1022 0.9947 0.0110
vn 0.0783 0.7401 0.6679
vn -0.6906 0.7133 0.1196
vn 0.3608 0.6717 0.6470
vn 0.2590 0.5047 0.8236
vn 0.0694 0.4570 0.8868
vn 0.0634 0.6617 0.7471
vn 0.1018 0.9932 0.0568
vn 0.0830 0.4287 0.8996
vn 0.1039 0.4994 0.8601
vn 0.1458 0.4995 0.8539
vn 0.0854 -0.2834 0.9552
vn 0.0990 0.4080 0.9076
vn 0.1316 -0.1911 0.9727
vn 0.1210 0.6393 0.7594
vn 0.1758 0.6080 0.7742
vn 0.1493 0.4210 0.8947
vn 0.1757 -0.2047 0.9629
vn 0.1272 -0.7423 0.6579
vn 0.1404 -0.7501 0.6462
vn 0.1323 -0.7491 0.6491
vn 0.1448 -0.7581 0.6358
vn 0.0043 -0.7795 0.6264
vn -0.0233 -0.7931 0.6086
vn 0.0219 -0.7908 0.6117
vn -0.0205 -0.8515 0.5240
vn -0.0420 -0.8125 0.5814
vn -0.0298 -0.8201 0.5714
vn 0.1966 -0.9653 -0.1719
vn 0.0292 -0.9990 0.0344
vn 0.1129 -0.9936 -0.0100
vn 0.7820 -0.4881 0.3877
vn 0.1261 -0.9244 0.3598
vn 0.5876 -0.6096 0.5321
vn 0.7457 -0.6245 0.2321
vn 0.9962 -0.0869 0.0003
vn 0.9940 -0.1092 0.0035
vn 0.9886 -0.0929 0.1185
vn 0.8648 -0.4139 -0.2843
vn -0.2195 -0.9342 -0.2814
vn 0.3728 -0.9213 -0.1104
vn -0.4073 -0.6291 -0.6621
vn -0.2183 -0.7980 -0.5617
vn 0.0295 -0.2747 -0.9611
vn -0.0781 -0.2906 -0.9536
vn 0.1676 -0.8075 -0.5656
vn 0.1409 -0.1566 -0.9776
vn 0.0173 0.1054 -0.9943
vn 0.1445 -0.0132 -0.9894
vn 0.0203 0.0996 -0.9948
vn -0.3020 0.7565 -0.5802
vn 0.1122 0.7123 -0.6928
vn -0.1185 0.4245 -0.8976
vn -0.7652 0.6126 -0.1979
vn -0.4563 0.8173 -0.3520
vn 0.1031 0.7323 -0.6731
vn 0.1164 -0.1666 -0.9791
vn 0.0246 0.7816 -0.6233
vn 0.1097 0.9880 0.1085
vn 0.0124 -0.1319 -0.9912
vn 0.1102 -0.7382 -0.6655
vn 0.2433 -0.6426 -0.7265
vn 0.0435 -0.7457 -0.6649
vn 0.0045 -0.1368 -0.9906
vn 0.0310 0.7571 -0.6526
vn 0.0366 -0.7301 -0.6823
vn 0.1686 0.9699 0.1755
vn 0.1113 -0.9910 -0.0744
vn 0.4118 -0.6845 0.6016
vn 0.6964 -0.4178 0.5836
vn 0.9150 -0.0779 0.3959
vn 0.0973 -0.2779 0.9557
vn 0.1116 -0.3425 0.9329
vn -0.1129 0.1670 0.9795
vn 0.1138 -0.2283 0.9669
usemtl mat0.072
s 1
f 1/1/1 3/2/2 52/3/3 2/4/4
f 9/5/5 7/6/6 1/1/1 2/4/4
f 3/2/2 1/1/1 4/7/7
f 1/1/1 5/8/8 4/7/7
f 1/1/1 6/9/9 77/10/10 5/8/8
f 7/6/6 6/9/9 1/1/1
f 8/11/11 7/6/6 9/5/5 57/12/12
f 12/13/13 10/14/14 7/6/6 8/11/11
f 7/6/6 10/14/14 11/15/15 6/9/9
f 13/16/16 11/15/15 10/14/14 12/13/13
f 14/17/17 16/18/18 13/16/16 12/13/13
f 15/19/19 14/17/17 12/13/13 8/11/11
f 18/20/20 17/21/21 14/17/17 15/19/19
f 17/21/21 19/22/22 16/18/18 14/17/17
f 16/18/18 19/22/22 20/23/23 22/24/24
f 20/23/23 21/25/25 23/26/26 22/24/24
f 22/24/24 23/26/26 27/27/27 24/28/28
f 16/18/18 22/24/24 24/28/28 26/29/29
f 26/29/29 24/28/28 25/30/30 79/31/31
f 24/28/28 27/27/27 29/32/32 25/30/30
f 27/27/27 28/33/33 30/34/34 29/32/32
f 23/26/26 68/35/35 28/33/33 27/27/27
f 29/32/32 30/34/34 32/36/36 31/37/37
f 25/30/30 29/32/32 31/37/37 34/38/38
f 31/37/37 32/36/36 35/39/39
f 33/40/40 31/37/37 35/39/39 36/41/41
f 34/38/38 31/37/37 33/40/40 72/42/42
f 36/41/41 35/39/39 38/43/43
f 35/39/39 37/44/44 39/45/45 38/43/43
f 30/34/34 37/44/44 35/39/39 32/36/36
f 37/44/44 42/46/46 40/47/47 39/45/45
f 42/46/46 44/48/48 41/49/49 40/47/47
f 43/50/50 44/48/48 42/46/46
f 30/34/34 43/50/50 42/46/46 37/44/44
f 41/49/49 44/48/48 45/51/51 46/52/52
f 43/50/50 47/53/53 45/51/51 44/48/48
f 46/52/52 45/51/51 49/54/54
f 45/51/51 47/53/53 54/55/55 48/56/56
f 49/54/54 45/51/51 48/56/56 50/57/57
f 48/56/56 53/58/58 51/59/59 50/57/57
f 51/59/59 53/58/58 2/60/4 52/61/3
f 53/58/58 9/62/5 2/60/4
f 9/62/5 53/58/58 48/56/56 54/55/55
f 55/63/60 54/55/55 47/53/53 58/64/61
f 55/63/60 57/65/12 9/62/5 54/55/55
f 56/66/62 66/67/63 57/65/12 55/63/60
f 58/64/61 60/68/64 56/66/62 55/63/60
f 59/69/65 58/64/61 47/53/53 69/70/66
f 60/68/64 58/64/61 59/69/65 61/71/67
f 62/72/68 64/73/69 56/66/62 60/68/64
f 62/72/68 60/68/64 61/71/67 63/74/70
f 64/73/69 65/75/71 66/67/63 56/66/62
f 66/76/63 65/77/71 18/20/20 15/19/19
f 66/76/63 15/19/19 8/11/11 57/12/12
f 63/74/70 61/71/67 68/35/35 67/78/72
f 23/26/26 21/25/25 67/78/72 68/35/35
f 61/71/67 59/69/65 28/33/33 68/35/35
f 28/33/33 59/69/65 69/70/66 30/34/34
f 30/34/34 69/70/66 47/53/53 43/50/50
f 70/79/73 34/38/38 71/80/74 73/81/75
f 79/31/31 25/30/30 34/38/38 70/79/73
f 71/80/74 34/38/38 72/42/42
f 75/82/76 70/79/73 73/81/75 74/83/77
f 76/84/78 75/82/76 74/83/77
f 77/10/10 6/9/9 75/82/76 76/84/78
f 11/15/15 78/85/79 75/82/76 6/9/9
f 79/31/31 70/79/73 75/82/76 78/85/79
f 11/15/15 13/16/16 78/85/79
f 13/16/16 26/29/29 79/31/31 78/85/79
f 16/18/18 26/29/29 13/16/16
usemtl mat0.344
f 80/86/80 81/87/81 131/88/82 82/89/83
f 88/90/84 81/87/81 80/86/80 86/91/85
f 82/89/83 83/92/86 80/86/80
f 80/86/80 83/92/86 84/93/87
f 80/86/80 84/93/87 156/94/88 85/95/89
f 86/91/85 80/86/80 85/95/89
f 87/96/90 136/97/91 88/90/84 86/91/85
f 91/98/92 87/96/90 86/91/85 89/99/93
f 86/91/85 85/95/89 90/100/94 89/99/93
f 92/101/95 91/98/92 89/99/93 90/100/94
f 93/102/96 91/98/92 92/101/95 95/103/97
f 94/104/98 87/96/90 91/98/92 93/102/96
f 97/105/99 94/104/98 93/102/96 96/106/100
f 96/106/100 93/102/96 95/103/97 98/107/101
f 95/103/97 101/108/102 99/109/103 98/107/101
f 99/109/103 101/108/102 102/110/104 100/111/105
f 101/108/102 103/112/106 106/113/107 102/110/104
f 95/103/97 105/114/108 103/112/106 101/108/102
f 105/114/108 158/115/109 104/116/110 103/112/106
f 103/112/106 104/116/110 108/117/111 106/113/107
f 106/113/107 108/117/111 109/118/112 107/119/113
f 102/110/104 106/113/107 107/119/113 147/120/114
f 108/117/111 110/121/115 111/122/116 109/118/112
f 104/116/110 113/123/117 110/121/115 108/117/111
f 110/121/115 114/124/118 111/122/116
f 112/125/119 115/126/120 114/124/118 110/121/115
f 113/123/117 151/127/121 112/125/119 110/121/115
f 115/126/120 117/128/122 114/124/118
f 114/124/118 117/128/122 118/129/123 116/130/124
f 109/118/112 111/122/116 114/124/118 116/130/124
f 116/130/124 118/129/123 119/131/125 121/132/126
f 121/132/126 119/131/125 120/133/127 123/134/128
f 122/135/129 121/132/126 123/134/128
f 109/118/112 116/130/124 121/132/126 122/135/129
f 120/133/127 125/136/130 124/137/131 123/134/128
f 122/135/129 123/134/128 124/137/131 126/138/132
f 125/136/130 128/139/133 124/137/131
f 124/137/131 127/140/134 133/141/135 126/138/132
f 128/139/133 129/142/136 127/140/134 124/137/131
f 127/140/134 129/142/136 130/143/137 132/144/138
f 130/143/137 131/145/82 81/146/81 132/144/138
f 132/144/138 81/146/81 88/147/84
f 88/147/84 133/141/135 127/140/134 132/144/138
f 134/148/139 137/149/140 126/138/132 133/141/135
f 134/148/139 133/141/135 88/147/84 136/150/91
f 135/151/141 134/148/139 136/150/91 145/152/142
f 137/149/140 134/148/139 135/151/141 139/153/143
f 138/154/144 148/155/145 126/138/132 137/149/140
f 139/153/143 140/156/146 138/154/144 137/149/140
f 141/157/147 139/153/143 135/151/141 143/158/148
f 141/157/147 142/159/149 140/156/146 139/153/143
f 143/158/148 135/151/141 145/152/142 144/160/150
f 145/161/142 94/104/98 97/105/99 144/162/150
f 145/161/142 136/97/91 87/96/90 94/104/98
f 142/159/149 146/163/151 147/120/114 140/156/146
f 102/110/104 147/120/114 146/163/151 100/111/105
f 140/156/146 147/120/114 107/119/113 138/154/144
f 107/119/113 109/118/112 148/155/145 138/154/144
f 109/118/112 122/135/129 126/138/132 148/155/145
f 149/164/152 152/165/153 150/166/154 113/123/117
f 158/115/109 149/164/152 113/123/117 104/116/110
f 150/166/154 151/127/121 113/123/117
f 154/167/155 153/168/156 152/165/153 149/164/152
f 155/169/157 153/168/156 154/167/155
f 156/94/88 155/169/157 154/167/155 85/95/89
f 90/100/94 85/95/89 154/167/155 157/170/158
f 158/115/109 157/170/158 154/167/155 149/164/152
f 90/100/94 157/170/158 92/101/95
f 92/101/95 157/170/158 158/115/109 105/114/108
f 95/103/97 92/101/95 105/114/108
