# Blender v2.92.0 OBJ File: 'New Nilfgaardian model work.blend'
# www.blender.org
mtllib Boots.mtl
o Boots_Legs_done.003
v -0.115538 -0.301391 -0.113698
v -0.250124 -0.317773 0.004599
v -0.218093 -0.312836 -0.011822
v -0.149559 -1.011671 -0.105002
v -0.134415 -1.004177 0.006039
v -0.183373 -0.986986 -0.103019
v -0.192229 -0.996203 -0.153232
v -0.229649 -0.996158 -0.140087
v -0.215893 -0.988038 -0.094499
v -0.269617 -1.012433 -0.081229
v -0.254210 -0.996343 -0.131709
v -0.240322 -0.989061 -0.086625
v -0.238100 -1.002857 0.036733
v -0.142045 -0.904186 0.017871
v -0.176845 -0.902574 0.027646
v -0.154016 -0.993204 0.157732
v -0.112004 -0.992912 0.131917
v -0.112349 -1.044365 0.125779
v -0.155291 -1.045429 0.152375
v -0.206521 -0.900179 0.036984
v -0.207951 -0.897071 0.109353
v -0.201738 -0.998285 0.123444
v -0.167093 -0.771231 0.028525
v -0.143273 -0.777275 0.014967
v -0.197648 -0.763689 0.045805
v -0.216010 -0.755579 0.099982
v -0.225171 -0.704111 0.075260
v -0.222116 -0.532045 0.039410
v -0.242313 -0.625218 0.069108
v -0.178402 -0.565995 0.166022
v -0.182090 -0.656487 0.174376
v -0.179258 -0.754472 0.163619
v -0.111766 -0.898947 0.106390
v -0.162464 -0.894832 0.149678
v -0.114748 -0.998850 0.086187
v -0.092553 -0.759367 0.118728
v -0.073291 -0.635709 0.105363
v -0.143523 -0.667687 -0.005102
v -0.142088 -0.562485 -0.023206
v -0.136279 -0.515471 -0.064954
v -0.227883 -0.424184 0.033525
v -0.129720 -0.421937 -0.088247
v -0.160565 -0.495029 0.135371
v -0.075286 -0.522080 0.073932
v -0.053747 -0.451375 0.044977
v -0.077194 -0.404929 0.107312
v -0.204229 -0.407114 0.098606
v -0.233058 -0.340014 0.077122
v -0.129268 -0.324034 0.126152
v -0.045159 -0.347021 0.097020
v -0.031922 -0.328834 -0.002843
v -0.230101 -1.018564 -0.183438
v -0.195220 -1.028824 -0.174666
v -0.257076 -1.031148 -0.149272
v -0.149227 -1.042568 -0.115351
v -0.270096 -1.044719 -0.090913
v -0.142290 -1.045719 0.005702
v -0.237156 -1.046412 0.035973
v -0.200605 -1.046222 0.113652
v -0.122458 -1.045258 0.082056
v 0.115538 -0.301391 -0.113698
v 0.250124 -0.317773 0.004599
v 0.218093 -0.312836 -0.011822
v 0.149559 -1.011671 -0.105002
v 0.134415 -1.004177 0.006039
v 0.183373 -0.986986 -0.103019
v 0.192229 -0.996203 -0.153232
v 0.229649 -0.996158 -0.140087
v 0.215893 -0.988038 -0.094499
v 0.269617 -1.012433 -0.081229
v 0.254210 -0.996343 -0.131709
v 0.240322 -0.989061 -0.086625
v 0.238100 -1.002857 0.036733
v 0.142045 -0.904186 0.017871
v 0.176845 -0.902574 0.027646
v 0.154016 -0.993204 0.157732
v 0.112004 -0.992912 0.131917
v 0.112349 -1.044365 0.125779
v 0.155291 -1.045429 0.152375
v 0.206521 -0.900179 0.036984
v 0.207951 -0.897071 0.109353
v 0.201738 -0.998285 0.123444
v 0.167093 -0.771231 0.028525
v 0.143273 -0.777275 0.014967
v 0.197648 -0.763689 0.045805
v 0.216010 -0.755579 0.099982
v 0.225171 -0.704111 0.075260
v 0.222116 -0.532045 0.039410
v 0.242313 -0.625218 0.069108
v 0.178402 -0.565995 0.166022
v 0.182090 -0.656487 0.174376
v 0.179258 -0.754472 0.163619
v 0.111766 -0.898947 0.106390
v 0.162464 -0.894832 0.149678
v 0.114748 -0.998850 0.086187
v 0.092553 -0.759367 0.118728
v 0.073291 -0.635709 0.105363
v 0.143523 -0.667687 -0.005102
v 0.142088 -0.562485 -0.023206
v 0.136279 -0.515471 -0.064954
v 0.227883 -0.424184 0.033525
v 0.129720 -0.421937 -0.088247
v 0.160565 -0.495029 0.135371
v 0.075286 -0.522080 0.073932
v 0.053747 -0.451375 0.044977
v 0.077194 -0.404929 0.107312
v 0.204229 -0.407114 0.098606
v 0.233058 -0.340014 0.077122
v 0.129268 -0.324034 0.126152
v 0.045159 -0.347021 0.097020
v 0.031922 -0.328834 -0.002843
v 0.230101 -1.018564 -0.183438
v 0.195220 -1.028824 -0.174666
v 0.257076 -1.031148 -0.149272
v 0.149227 -1.042568 -0.115351
v 0.270096 -1.044719 -0.090913
v 0.142290 -1.045719 0.005702
v 0.237156 -1.046412 0.035973
v 0.200605 -1.046222 0.113652
v 0.122458 -1.045258 0.082056
vt 0.538571 0.138794
vt 0.527981 0.147565
vt 0.539816 0.136384
vt 0.422725 0.084165
vt 0.426927 0.085529
vt 0.417287 0.094295
vt 0.427454 0.080256
vt 0.431027 0.080631
vt 0.430798 0.085583
vt 0.437211 0.083645
vt 0.433802 0.085504
vt 0.433317 0.081023
vt 0.443571 0.094101
vt 0.425474 0.105917
vt 0.430522 0.105930
vt 0.403054 0.104022
vt 0.401314 0.099684
vt 0.405477 0.097946
vt 0.407137 0.102249
vt 0.434869 0.105994
vt 0.444343 0.109663
vt 0.450795 0.100370
vt 0.430504 0.123900
vt 0.427099 0.123441
vt 0.434608 0.124600
vt 0.441260 0.125792
vt 0.439130 0.131662
vt 0.439292 0.140034
vt 0.550450 0.108486
vt 0.536938 0.115887
vt 0.536992 0.104898
vt 0.548949 0.098882
vt 0.449009 0.125943
vt 0.450472 0.135529
vt 0.412980 0.110382
vt 0.406287 0.112380
vt 0.410786 0.099830
vt 0.414033 0.126019
vt 0.404069 0.125926
vt 0.450733 0.111742
vt 0.455735 0.103518
vt 0.414603 0.138833
vt 0.402474 0.135440
vt 0.495809 0.098991
vt 0.508639 0.104776
vt 0.494049 0.108640
vt 0.427343 0.135809
vt 0.523952 0.117274
vt 0.523159 0.104160
vt 0.524449 0.123809
vt 0.540103 0.127716
vt 0.525316 0.133279
vt 0.550421 0.116856
vt 0.508034 0.118302
vt 0.508758 0.128505
vt 0.495005 0.117076
vt 0.499412 0.131266
vt 0.547421 0.127739
vt 0.545600 0.135651
vt 0.485850 0.124728
vt 0.489517 0.137415
vt 0.478694 0.129717
vt 0.499977 0.139250
vt 0.511028 0.144268
vt 0.426367 0.076830
vt 0.430004 0.076042
vt 0.420941 0.033456
vt 0.413741 0.035194
vt 0.417240 0.031600
vt 0.434118 0.077625
vt 0.420766 0.081611
vt 0.439055 0.080906
vt 0.414149 0.091233
vt 0.424963 0.040883
vt 0.411327 0.041538
vt 0.446773 0.090955
vt 0.423694 0.054250
vt 0.412807 0.055975
vt 0.452887 0.096094
vt 0.457733 0.098978
vt 0.408812 0.095869
vt 0.415507 0.065086
vt 0.424587 0.062937
vt 0.424963 0.067891
vt 0.419818 0.070082
vt 0.470674 0.136943
vt 0.538570 0.138801
vt 0.539815 0.136391
vt 0.527979 0.147572
vt 0.422725 0.084165
vt 0.417287 0.094295
vt 0.426926 0.085529
vt 0.427453 0.080256
vt 0.431026 0.080631
vt 0.430797 0.085583
vt 0.437210 0.083645
vt 0.433316 0.081023
vt 0.433801 0.085504
vt 0.443571 0.094101
vt 0.425473 0.105917
vt 0.430521 0.105930
vt 0.403054 0.104022
vt 0.407136 0.102249
vt 0.405477 0.097946
vt 0.401313 0.099684
vt 0.434869 0.105994
vt 0.444343 0.109662
vt 0.450795 0.100370
vt 0.430504 0.123899
vt 0.427099 0.123441
vt 0.434607 0.124600
vt 0.441259 0.125792
vt 0.439129 0.131662
vt 0.439291 0.140034
vt 0.550449 0.108493
vt 0.536991 0.104905
vt 0.536936 0.115894
vt 0.548948 0.098889
vt 0.450471 0.135529
vt 0.449009 0.125943
vt 0.412979 0.110382
vt 0.406287 0.112380
vt 0.410786 0.099830
vt 0.414032 0.126019
vt 0.404068 0.125926
vt 0.450732 0.111742
vt 0.455734 0.103518
vt 0.414603 0.138833
vt 0.402474 0.135440
vt 0.495808 0.098998
vt 0.494047 0.108647
vt 0.508637 0.104784
vt 0.427342 0.135809
vt 0.523158 0.104168
vt 0.523951 0.117281
vt 0.524448 0.123816
vt 0.540102 0.127724
vt 0.525315 0.133286
vt 0.550420 0.116863
vt 0.508033 0.118309
vt 0.508757 0.128512
vt 0.495004 0.117083
vt 0.499411 0.131273
vt 0.547420 0.127746
vt 0.545599 0.135659
vt 0.485849 0.124735
vt 0.489515 0.137423
vt 0.478693 0.129725
vt 0.499976 0.139258
vt 0.511026 0.144275
vt 0.430004 0.076042
vt 0.426367 0.076830
vt 0.420941 0.033456
vt 0.417240 0.031600
vt 0.413742 0.035195
vt 0.434117 0.077625
vt 0.420765 0.081611
vt 0.439054 0.080906
vt 0.414148 0.091233
vt 0.424964 0.040884
vt 0.411327 0.041538
vt 0.446772 0.090954
vt 0.423694 0.054250
vt 0.412807 0.055975
vt 0.457733 0.098978
vt 0.452886 0.096094
vt 0.408812 0.095869
vt 0.415507 0.065087
vt 0.419818 0.070083
vt 0.424964 0.067892
vt 0.424587 0.062937
vt 0.470673 0.136951
vn -0.1685 0.9846 0.0471
vn 0.0596 -0.3213 -0.9451
vn -0.8124 0.5654 -0.1425
vn 0.8634 0.4166 -0.2844
vn 0.3190 0.8878 -0.3316
vn 0.9669 0.0254 -0.2539
vn 0.3802 0.7611 -0.5255
vn -0.2100 0.8936 -0.3966
vn -0.1085 0.9301 -0.3507
vn -0.9188 0.3890 0.0671
vn -0.4617 0.8762 -0.1379
vn -0.6568 0.6974 -0.2868
vn -0.9651 0.1139 0.2357
vn 0.6188 0.2877 -0.7309
vn -0.2949 0.4917 -0.8192
vn -0.0132 -0.0002 0.9999
vn -0.0428 -0.6429 0.7647
vn 0.7224 -0.6191 0.3078
vn 0.8822 -0.0001 0.4709
vn -0.8607 0.3310 -0.3869
vn -0.9207 0.0276 0.3892
vn -0.8051 -0.0059 0.5931
vn -0.4537 -0.0608 -0.8891
vn 0.3393 -0.1132 -0.9338
vn -0.7823 -0.0553 -0.6204
vn -0.9709 -0.1161 0.2094
vn -0.8935 -0.1866 -0.4085
vn -0.9886 -0.0113 -0.1503
vn -0.2389 0.2973 0.9244
vn -0.9763 -0.0186 -0.2155
vn -0.2538 0.0037 0.9672
vn -0.2336 -0.0873 0.9684
vn 0.9642 0.0198 0.2645
vn -0.0859 0.0073 0.9962
vn 0.9813 -0.0380 -0.1886
vn 0.9408 -0.1018 0.3234
vn 0.9663 -0.0263 0.2559
vn 0.1735 -0.1851 -0.9673
vn 0.1483 -0.4435 -0.8839
vn 0.0724 -0.4539 -0.8881
vn -0.9739 -0.1439 -0.1752
vn 0.0436 -0.3408 -0.9391
vn -0.1632 0.1835 0.9694
vn 0.9655 -0.1563 0.2084
vn 0.9606 -0.2695 -0.0675
vn 0.5033 -0.1263 0.8548
vn -0.6492 -0.0278 0.7601
vn -0.7371 0.4113 0.5362
vn -0.1091 0.1036 0.9886
vn 0.7997 -0.1180 0.5886
vn 0.8985 -0.2493 -0.3612
vn 0.3305 -0.3355 -0.8822
vn -0.3142 0.0279 -0.9489
vn -0.7147 -0.4284 -0.5529
vn 0.6967 -0.6152 -0.3690
vn -0.7531 -0.6531 -0.0795
vn 0.6277 -0.7704 -0.1116
vn -0.6637 -0.7120 0.2289
vn -0.5673 -0.7011 0.4319
vn 0.6588 -0.7418 -0.1251
vn 0.1685 0.9846 0.0471
vn 0.8124 0.5654 -0.1425
vn -0.0596 -0.3213 -0.9451
vn -0.8634 0.4166 -0.2844
vn -0.9669 0.0254 -0.2539
vn -0.3190 0.8878 -0.3316
vn -0.3802 0.7611 -0.5255
vn 0.2100 0.8936 -0.3966
vn 0.1085 0.9301 -0.3507
vn 0.9188 0.3890 0.0671
vn 0.6568 0.6974 -0.2868
vn 0.4617 0.8762 -0.1379
vn 0.9651 0.1139 0.2357
vn -0.6188 0.2877 -0.7309
vn 0.2949 0.4917 -0.8192
vn 0.0132 -0.0002 0.9999
vn -0.8822 -0.0001 0.4709
vn -0.7224 -0.6191 0.3078
vn 0.0428 -0.6429 0.7647
vn 0.8607 0.3310 -0.3869
vn 0.9207 0.0276 0.3892
vn 0.8051 -0.0059 0.5931
vn 0.4537 -0.0608 -0.8891
vn -0.3393 -0.1132 -0.9338
vn 0.7823 -0.0553 -0.6204
vn 0.9709 -0.1161 0.2094
vn 0.8935 -0.1866 -0.4085
vn 0.9886 -0.0113 -0.1503
vn 0.2389 0.2973 0.9244
vn 0.9763 -0.0186 -0.2155
vn 0.2538 0.0037 0.9672
vn 0.2336 -0.0873 0.9684
vn -0.9642 0.0198 0.2645
vn 0.0859 0.0073 0.9962
vn -0.9813 -0.0380 -0.1886
vn -0.9408 -0.1018 0.3234
vn -0.9663 -0.0263 0.2559
vn -0.1735 -0.1851 -0.9673
vn -0.1483 -0.4435 -0.8839
vn -0.0724 -0.4539 -0.8881
vn 0.9739 -0.1439 -0.1752
vn -0.0436 -0.3408 -0.9391
vn 0.1632 0.1835 0.9694
vn -0.9655 -0.1563 0.2084
vn -0.9606 -0.2695 -0.0675
vn -0.5033 -0.1263 0.8548
vn 0.6492 -0.0278 0.7601
vn 0.7371 0.4113 0.5362
vn 0.1091 0.1036 0.9886
vn -0.7997 -0.1180 0.5886
vn -0.8985 -0.2493 -0.3612
vn 0.3142 0.0279 -0.9489
vn -0.3305 -0.3355 -0.8822
vn 0.7147 -0.4284 -0.5529
vn -0.6967 -0.6152 -0.3690
vn 0.7531 -0.6531 -0.0795
vn -0.6277 -0.7704 -0.1116
vn 0.6637 -0.7120 0.2289
vn 0.5673 -0.7011 0.4319
vn -0.6588 -0.7418 -0.1251
usemtl None
s 1
f 3/1/1 1/2/2 2/3/3
f 4/4/4 6/5/5 5/6/6
f 7/7/7 6/5/5 4/4/4
f 8/8/8 9/9/9 6/5/5 7/7/7
f 10/10/10 12/11/11 11/12/12
f 11/12/12 12/11/11 9/9/9 8/8/8
f 13/13/13 12/11/11 10/10/10
f 6/5/5 14/14/14 5/6/6
f 15/15/15 14/14/14 6/5/5 9/9/9
f 16/16/16 19/17/17 18/18/18 17/19/19
f 13/13/13 20/20/20 12/11/11
f 12/11/11 20/20/20 15/15/15 9/9/9
f 21/21/21 20/20/20 13/13/13 22/22/22
f 23/23/23 24/24/24 14/14/14 15/15/15
f 25/25/25 23/23/23 15/15/15 20/20/20
f 26/26/26 25/25/25 20/20/20 21/21/21
f 26/26/26 27/27/27 25/25/25
f 26/26/26 29/28/28 27/27/27
f 30/29/29 28/30/30 29/31/28
f 31/32/31 30/29/29 29/31/28
f 26/26/26 32/33/32 31/34/31 29/28/28
f 33/35/33 34/36/34 16/16/16 17/19/19
f 14/14/14 33/35/33 35/37/35 5/6/6
f 33/35/33 14/14/14 24/24/24 36/38/36
f 34/36/34 33/35/33 36/38/36 32/39/32
f 35/37/35 33/35/33 17/19/19
f 21/21/21 34/40/34 32/33/32 26/26/26
f 34/40/34 21/21/21 22/22/22 16/41/16
f 37/42/37 31/43/31 32/39/32 36/38/36
f 31/44/31 37/45/37 30/46/29
f 24/24/24 38/47/38 37/42/37 36/38/36
f 27/27/27 38/47/38 25/25/25
f 23/23/23 38/47/38 24/24/24
f 38/47/38 23/23/23 25/25/25
f 29/28/28 38/47/38 27/27/27
f 28/30/30 39/48/39 38/49/38 29/31/28
f 28/30/30 40/50/40 39/48/39
f 41/51/41 42/52/42 40/50/40 28/30/30
f 41/51/41 2/3/3 1/2/2 42/52/42
f 30/29/29 43/53/43 28/30/30
f 40/50/40 44/54/44 39/48/39
f 39/48/39 44/54/44 37/45/37 38/49/38
f 42/52/42 45/55/45 44/54/44 40/50/40
f 44/54/44 43/56/43 30/46/29 37/45/37
f 44/54/44 46/57/46 43/56/43
f 47/58/47 28/30/30 43/53/43
f 41/51/41 47/58/47 48/59/48 2/3/3
f 28/30/30 47/58/47 41/51/41
f 46/57/46 47/60/47 43/56/43
f 48/59/48 3/1/1 2/3/3
f 49/61/49 47/60/47 46/57/46
f 48/62/48 47/60/47 49/61/49
f 50/63/50 46/57/46 44/54/44 45/55/45
f 50/63/50 49/61/49 46/57/46
f 51/64/51 50/63/50 45/55/45
f 1/2/2 51/64/51 45/55/45 42/52/42
f 7/7/7 53/65/52 52/66/53 8/8/8
f 53/67/52 54/68/54 52/69/53
f 54/70/54 11/12/12 8/8/8 52/66/53
f 4/4/4 55/71/55 53/65/52 7/7/7
f 56/72/56 10/10/10 11/12/12 54/70/54
f 5/6/6 57/73/57 55/71/55 4/4/4
f 55/74/55 56/75/56 54/68/54 53/67/52
f 58/76/58 13/13/13 10/10/10 56/72/56
f 57/77/57 58/78/58 56/75/56 55/74/55
f 22/22/22 59/79/59 19/80/17 16/41/16
f 60/81/60 35/37/35 17/19/19 18/18/18
f 59/82/59 60/83/60 18/84/18 19/85/17
f 35/37/35 60/81/60 57/73/57 5/6/6
f 60/83/60 59/82/59 58/78/58 57/77/57
f 59/79/59 22/22/22 13/13/13 58/76/58
f 3/86/1 48/62/48 49/61/49
f 63/87/61 62/88/62 61/89/63
f 64/90/64 65/91/65 66/92/66
f 67/93/67 64/90/64 66/92/66
f 68/94/68 67/93/67 66/92/66 69/95/69
f 70/96/70 71/97/71 72/98/72
f 71/97/71 68/94/68 69/95/69 72/98/72
f 73/99/73 70/96/70 72/98/72
f 66/92/66 65/91/65 74/100/74
f 75/101/75 69/95/69 66/92/66 74/100/74
f 76/102/76 77/103/77 78/104/78 79/105/79
f 73/99/73 72/98/72 80/106/80
f 72/98/72 69/95/69 75/101/75 80/106/80
f 81/107/81 82/108/82 73/99/73 80/106/80
f 83/109/83 75/101/75 74/100/74 84/110/84
f 85/111/85 80/106/80 75/101/75 83/109/83
f 86/112/86 81/107/81 80/106/80 85/111/85
f 86/112/86 85/111/85 87/113/87
f 86/112/86 87/113/87 89/114/88
f 90/115/89 89/116/88 88/117/90
f 91/118/91 89/116/88 90/115/89
f 86/112/86 89/114/88 91/119/91 92/120/92
f 93/121/93 77/103/77 76/102/76 94/122/94
f 74/100/74 65/91/65 95/123/95 93/121/93
f 93/121/93 96/124/96 84/110/84 74/100/74
f 94/122/94 92/125/92 96/124/96 93/121/93
f 95/123/95 77/103/77 93/121/93
f 81/107/81 86/112/86 92/120/92 94/126/94
f 94/126/94 76/127/76 82/108/82 81/107/81
f 97/128/97 96/124/96 92/125/92 91/129/91
f 91/130/91 90/131/89 97/132/97
f 84/110/84 96/124/96 97/128/97 98/133/98
f 87/113/87 85/111/85 98/133/98
f 83/109/83 84/110/84 98/133/98
f 98/133/98 85/111/85 83/109/83
f 89/114/88 87/113/87 98/133/98
f 88/117/90 89/116/88 98/134/98 99/135/99
f 88/117/90 99/135/99 100/136/100
f 101/137/101 88/117/90 100/136/100 102/138/102
f 101/137/101 102/138/102 61/89/63 62/88/62
f 90/115/89 88/117/90 103/139/103
f 100/136/100 99/135/99 104/140/104
f 99/135/99 98/134/98 97/132/97 104/140/104
f 102/138/102 100/136/100 104/140/104 105/141/105
f 104/140/104 97/132/97 90/131/89 103/142/103
f 104/140/104 103/142/103 106/143/106
f 107/144/107 103/139/103 88/117/90
f 101/137/101 62/88/62 108/145/108 107/144/107
f 88/117/90 101/137/101 107/144/107
f 106/143/106 103/142/103 107/146/107
f 108/145/108 62/88/62 63/87/61
f 109/147/109 106/143/106 107/146/107
f 108/148/108 109/147/109 107/146/107
f 110/149/110 105/141/105 104/140/104 106/143/106
f 110/149/110 106/143/106 109/147/109
f 111/150/111 105/141/105 110/149/110
f 61/89/63 102/138/102 105/141/105 111/150/111
f 67/93/67 68/94/68 112/151/112 113/152/113
f 113/153/113 112/154/112 114/155/114
f 114/156/114 112/151/112 68/94/68 71/97/71
f 64/90/64 67/93/67 113/152/113 115/157/115
f 116/158/116 114/156/114 71/97/71 70/96/70
f 65/91/65 64/90/64 115/157/115 117/159/117
f 115/160/115 113/153/113 114/155/114 116/161/116
f 118/162/118 116/158/116 70/96/70 73/99/73
f 117/163/117 115/160/115 116/161/116 118/164/118
f 82/108/82 76/127/76 79/165/79 119/166/119
f 120/167/120 78/104/78 77/103/77 95/123/95
f 119/168/119 79/169/79 78/170/78 120/171/120
f 95/123/95 65/91/65 117/159/117 120/167/120
f 120/171/120 117/163/117 118/164/118 119/168/119
f 119/166/119 118/162/118 73/99/73 82/108/82
f 63/172/61 109/147/109 108/148/108
