# Blender v2.92.0 OBJ File: 'New Nilfgaardian model work.blend'
# www.blender.org
mtllib Elbow protector.mtl
o Elbow_Protector_Lower_plate_done.086
v -0.393524 0.584665 0.045058
v -0.390254 0.558404 0.085249
v -0.442424 0.571981 0.036163
v -0.447513 0.555541 0.084022
v -0.493060 0.566256 0.033937
v -0.496912 0.549840 0.070266
v -0.498224 0.519116 0.095364
v -0.448561 0.525689 0.112759
v -0.495623 0.479574 0.097761
v -0.491604 0.443498 0.081831
v -0.444826 0.477432 0.118854
v -0.440068 0.441003 0.097395
v -0.379841 0.450317 0.101491
v -0.383081 0.486455 0.121623
v -0.420181 0.420565 0.057095
v -0.428458 0.417264 0.012437
v -0.485730 0.417486 0.047847
v -0.379833 0.404886 0.019267
v -0.479842 0.416107 0.008667
v -0.385984 0.525978 0.113582
v 0.393524 0.584665 0.045058
v 0.390253 0.558404 0.085249
v 0.442424 0.571981 0.036163
v 0.447513 0.555541 0.084022
v 0.493059 0.566256 0.033937
v 0.496912 0.549840 0.070266
v 0.498224 0.519116 0.095364
v 0.448561 0.525689 0.112759
v 0.495623 0.479574 0.097761
v 0.491603 0.443498 0.081831
v 0.444826 0.477432 0.118854
v 0.440068 0.441003 0.097395
v 0.379841 0.450317 0.101491
v 0.383081 0.486455 0.121623
v 0.420181 0.420565 0.057095
v 0.428458 0.417264 0.012437
v 0.485730 0.417486 0.047847
v 0.379833 0.404886 0.019267
v 0.479842 0.416107 0.008667
v 0.385984 0.525978 0.113582
vt 0.031231 0.417513
vt 0.027325 0.397738
vt 0.047344 0.422884
vt 0.050274 0.398714
vt 0.033672 0.377474
vt 0.049297 0.376986
vt 0.065899 0.377474
vt 0.082501 0.377474
vt 0.065899 0.399447
vt 0.099590 0.377718
vt 0.099590 0.399691
vt 0.083965 0.400179
vt 0.082501 0.424837
vt 0.098614 0.425326
vt 0.117657 0.405550
vt 0.138165 0.398958
vt 0.134747 0.419222
vt 0.116192 0.376986
vt 0.131817 0.377718
vt 0.065899 0.424837
vt 0.031231 0.417513
vt 0.047344 0.422884
vt 0.027325 0.397738
vt 0.050274 0.398714
vt 0.033672 0.377474
vt 0.049297 0.376986
vt 0.065899 0.377474
vt 0.065899 0.399447
vt 0.082501 0.377474
vt 0.099590 0.377718
vt 0.099590 0.399691
vt 0.083965 0.400179
vt 0.082501 0.424837
vt 0.098614 0.425326
vt 0.117657 0.405550
vt 0.138165 0.398958
vt 0.134747 0.419222
vt 0.116192 0.376986
vt 0.131817 0.377718
vt 0.065899 0.424837
vn -0.2992 0.7869 0.5397
vn -0.1381 0.9175 0.3731
vn -0.1232 0.7856 0.6063
vn -0.1632 0.8069 0.5677
vn -0.1635 0.9250 0.3429
vn -0.2499 0.7832 0.5693
vn -0.3349 0.3558 0.8725
vn -0.3471 -0.1911 0.9181
vn -0.2013 0.3884 0.8992
vn -0.1999 -0.6946 0.6911
vn -0.1265 -0.7337 0.6676
vn -0.1722 -0.2054 0.9634
vn -0.0069 -0.1498 0.9887
vn 0.0612 -0.7228 0.6883
vn 0.0052 -0.9426 0.3338
vn -0.0774 -0.9932 0.0866
vn -0.0415 -0.9344 0.3539
vn -0.0165 -0.9345 0.3555
vn 0.0196 -0.9991 0.0371
vn -0.0264 0.4343 0.9004
vn 0.3048 0.7863 0.5374
vn 0.1082 0.7738 0.6241
vn 0.1520 0.9176 0.3674
vn 0.1281 0.8294 0.5438
vn 0.1687 0.9200 0.3538
vn 0.2476 0.7863 0.5661
vn 0.3323 0.3597 0.8719
vn 0.1959 0.4375 0.8776
vn 0.3449 -0.2023 0.9166
vn 0.2801 -0.3850 0.8794
vn 0.1575 -0.4790 0.8636
vn 0.2118 -0.2416 0.9470
vn 0.0072 -0.1655 0.9862
vn -0.0153 -0.4568 0.8895
vn -0.0497 0.8944 -0.4445
vn 0.0112 0.9481 -0.3177
vn 0.1037 0.8518 -0.5135
vn -0.1890 0.9009 -0.3908
vn -0.1058 0.9908 -0.0841
vn -0.1221 0.9557 -0.2677
vn 0.0170 0.9986 -0.0507
vn 0.0372 -0.7958 0.6044
vn 0.0201 -0.8074 0.5896
vn 0.0668 -0.7909 0.6083
vn 0.0187 0.9991 -0.0378
vn 0.0226 0.4383 0.8985
usemtl mat0.066
s 1
f 1/1/1 3/2/2 2/3/3
f 4/4/4 2/3/3 3/2/2
f 3/2/2 5/5/5 4/4/4
f 6/6/6 4/4/4 5/5/5
f 4/4/4 6/6/6 7/7/7
f 7/7/7 9/8/8 8/9/9
f 7/7/7 8/9/9 4/4/4
f 10/10/10 12/11/11 9/8/8
f 11/12/12 8/9/9 9/8/8
f 11/12/12 9/8/8 12/11/11
f 11/12/12 12/11/11 14/13/13
f 13/14/14 14/13/13 12/11/11
f 12/11/11 15/15/15 13/14/14
f 12/11/11 10/10/10 15/15/15
f 16/16/16 18/17/17 15/15/15
f 15/15/15 17/18/18 16/16/16
f 17/18/18 15/15/15 10/10/10
f 13/14/14 15/15/15 18/17/17
f 19/19/19 16/16/16 17/18/18
f 20/20/20 8/9/9 14/13/13
f 11/12/12 14/13/13 8/9/9
f 2/3/3 4/4/4 20/20/20
f 8/9/9 20/20/20 4/4/4
usemtl mat0.312
f 21/21/21 22/22/22 23/23/23
f 24/24/24 23/23/23 22/22/22
f 23/23/23 24/24/24 25/25/25
f 26/26/26 25/25/25 24/24/24
f 24/24/24 27/27/27 26/26/26
f 27/27/27 28/28/28 29/29/29
f 27/27/27 24/24/24 28/28/28
f 30/30/30 29/29/29 32/31/31
f 31/32/32 29/29/29 28/28/28
f 31/32/32 32/31/31 29/29/29
f 31/32/32 34/33/33 32/31/31
f 33/34/34 32/31/31 34/33/33
f 32/31/35 35/35/36 33/34/37
f 32/31/35 30/30/38 35/35/36
f 36/36/39 38/37/40 35/35/36
f 35/35/36 37/38/41 36/36/39
f 37/38/42 30/30/43 35/35/44
f 33/34/37 35/35/36 38/37/40
f 39/39/45 36/36/39 37/38/41
f 40/40/46 34/33/33 28/28/28
f 31/32/32 28/28/28 34/33/33
f 22/22/22 40/40/46 24/24/24
f 28/28/28 24/24/24 40/40/46
