# Blender v2.92.0 OBJ File: 'New Nilfgaardian model work.blend'
# www.blender.org
mtllib Helmet.mtl
o Helmet_Helmetdone
v -0.098337 0.808766 0.005986
v -0.095476 0.809454 -0.016220
v -0.104754 0.782128 -0.017944
v -0.104964 0.780757 0.005935
v 0.108494 0.780757 0.005935
v 0.108285 0.782128 -0.017944
v 0.099006 0.809454 -0.016220
v 0.101867 0.808766 0.005986
v -0.091835 0.818684 -0.005938
v -0.091524 0.818246 -0.020475
v 0.095055 0.818246 -0.020475
v 0.095365 0.818684 -0.005938
v -0.076818 0.833928 -0.005692
v -0.076731 0.833355 0.004295
v 0.080261 0.833355 0.004295
v 0.080348 0.833928 -0.005692
v -0.068323 0.839198 -0.005674
v 0.071853 0.839198 -0.005674
v -0.051144 0.847290 -0.014833
v -0.068233 0.839135 -0.020167
v -0.050105 0.846335 0.005996
v 0.053635 0.846335 0.005996
v 0.054674 0.847290 -0.014833
v 0.001765 0.857084 -0.015541
v 0.001765 0.856486 0.007982
v -0.049268 0.842503 0.026819
v 0.001765 0.852651 0.031252
v 0.071764 0.839135 -0.020167
v 0.052798 0.842503 0.026819
v -0.046687 0.781019 0.080533
v 0.001765 0.779648 0.089325
v 0.001765 0.807234 0.085901
v -0.046384 0.806189 0.076829
v 0.049915 0.806189 0.076829
v 0.050217 0.781019 0.080533
v 0.001765 0.835955 0.067077
v -0.042811 0.829483 0.060340
v 0.046341 0.829483 0.060340
v -0.074455 0.830216 0.025253
v 0.077985 0.830216 0.025253
v -0.065459 0.823276 0.051600
v 0.068989 0.823276 0.051600
v -0.094528 0.807950 0.026484
v 0.098058 0.807950 0.026484
v -0.074066 0.805503 0.060046
v 0.077596 0.805503 0.060046
v -0.100617 0.779941 0.026838
v 0.104148 0.779941 0.026838
v -0.078619 0.779818 0.061617
v 0.082150 0.779818 0.061617
v 0.001765 0.852922 -0.060682
v 0.001765 0.856188 -0.037826
v 0.052270 0.846621 -0.037026
v 0.027086 0.850092 -0.059772
v -0.014341 0.759554 -0.129218
v -0.013940 0.766839 -0.124831
v 0.001765 0.767486 -0.125222
v 0.001765 0.759333 -0.129452
v 0.017470 0.766839 -0.124831
v 0.017872 0.759554 -0.129218
v 0.001765 0.752434 -0.131060
v -0.014615 0.752387 -0.130989
v 0.018145 0.752387 -0.130989
v -0.097234 0.739506 0.001433
v -0.097792 0.741032 -0.021898
v 0.101322 0.741032 -0.021898
v 0.100764 0.739506 0.001433
v -0.093295 0.736709 0.024121
v 0.096825 0.736709 0.024121
v -0.072887 0.736313 0.061337
v 0.076417 0.736313 0.061337
v -0.037773 0.737802 0.082755
v 0.041303 0.737802 0.082755
v 0.001765 0.737381 0.087889
v 0.001765 0.730096 0.088087
v -0.035141 0.731373 0.082498
v 0.038672 0.731373 0.082498
v 0.001765 0.701403 0.101136
v -0.041732 0.701606 0.092665
v 0.045262 0.701606 0.092665
v -0.070501 0.729607 0.061173
v 0.074032 0.729607 0.061173
v -0.091382 0.729908 0.024242
v 0.094912 0.729908 0.024242
v -0.097085 0.732302 0.001162
v 0.100616 0.732302 0.001162
v -0.097679 0.733710 -0.022285
v 0.101209 0.733710 -0.022285
v -0.095811 0.744551 -0.043240
v -0.096387 0.736246 -0.044079
v 0.099917 0.736246 -0.044079
v 0.099341 0.744551 -0.043240
v -0.031221 0.751179 -0.130545
v -0.033827 0.759766 -0.125918
v 0.037357 0.759766 -0.125918
v 0.034751 0.751179 -0.130545
v -0.051191 0.736840 -0.125527
v -0.058652 0.752046 -0.113287
v 0.062182 0.752046 -0.113287
v 0.054721 0.736840 -0.125527
v 0.075645 0.745746 -0.100207
v 0.071617 0.732110 -0.113001
v -0.088968 0.703650 -0.099962
v -0.085355 0.742703 -0.083694
v -0.072114 0.745746 -0.100207
v -0.068086 0.732110 -0.113001
v 0.088885 0.742703 -0.083694
v 0.092498 0.703650 -0.099962
v -0.063845 0.716413 -0.126587
v 0.067375 0.716413 -0.126587
v -0.084673 0.687333 -0.112795
v 0.088204 0.687333 -0.112795
v -0.100756 0.703581 -0.079173
v -0.091486 0.738107 -0.066174
v 0.095016 0.738107 -0.066174
v 0.104286 0.703581 -0.079173
v -0.109531 0.702649 -0.050791
v 0.113061 0.702649 -0.050791
v -0.100119 0.678945 -0.096286
v 0.103650 0.678945 -0.096286
v -0.119541 0.675830 -0.053241
v 0.123072 0.675830 -0.053241
v -0.112387 0.701438 -0.026065
v 0.115917 0.701438 -0.026065
v -0.108946 0.702603 0.000585
v 0.112477 0.702603 0.000585
v -0.120805 0.675966 -0.025919
v 0.124335 0.675966 -0.025919
v -0.118106 0.676497 0.002303
v 0.121636 0.676497 0.002303
v -0.103066 0.702498 0.025829
v 0.106596 0.702498 0.025829
v -0.079786 0.701808 0.067385
v 0.083316 0.701808 0.067385
v -0.111790 0.675632 0.030352
v 0.115320 0.675632 0.030352
v -0.085298 0.675170 0.075364
v 0.088828 0.675170 0.075364
v -0.046263 0.674363 0.102500
v 0.001765 0.673815 0.112424
v 0.049793 0.674363 0.102500
v -0.048740 0.846621 -0.037026
v -0.023556 0.850092 -0.059772
v 0.001765 0.836906 -0.097892
v 0.023030 0.835276 -0.095733
v -0.019500 0.835276 -0.095733
v -0.017750 0.815853 -0.114047
v 0.001765 0.816580 -0.115801
v 0.021280 0.815853 -0.114047
v -0.015721 0.782277 -0.121768
v 0.001765 0.782159 -0.122775
v 0.019252 0.782277 -0.121768
v -0.035045 0.764155 -0.120539
v 0.038576 0.764155 -0.120539
v -0.043740 0.778223 -0.116024
v 0.047271 0.778223 -0.116024
v -0.058521 0.758434 -0.109675
v 0.062051 0.758434 -0.109675
v -0.071996 0.754834 -0.098797
v 0.075527 0.754834 -0.098797
v -0.085571 0.750071 -0.081885
v 0.089102 0.750071 -0.081885
v -0.092669 0.746951 -0.065211
v 0.096199 0.746951 -0.065211
v -0.073433 0.834053 -0.035515
v -0.075878 0.833413 -0.019925
v 0.076963 0.834053 -0.035515
v 0.079409 0.833413 -0.019925
v -0.042106 0.829597 -0.091079
v 0.045637 0.829597 -0.091079
v -0.041927 0.813298 -0.105601
v 0.045457 0.813298 -0.105601
v -0.061039 0.775013 -0.107604
v 0.064569 0.775013 -0.107604
v -0.088727 0.821778 -0.020375
v -0.086547 0.821639 -0.035678
v -0.094381 0.810021 -0.036249
v 0.090077 0.821639 -0.035678
v 0.092257 0.821778 -0.020375
v 0.097911 0.810021 -0.036249
v -0.061134 0.823993 -0.083374
v 0.064664 0.823993 -0.083374
v -0.068116 0.808623 -0.091149
v 0.071646 0.808623 -0.091149
v -0.085507 0.767754 -0.079135
v -0.095421 0.764989 -0.062595
v 0.098952 0.764989 -0.062595
v 0.089038 0.767754 -0.079135
v -0.074822 0.771010 -0.096898
v -0.101618 0.783191 -0.039045
v 0.105149 0.783191 -0.039045
v 0.078352 0.771010 -0.096898
vt 0.109487 0.800733
vt 0.117889 0.805445
vt 0.124119 0.793957
vt 0.114273 0.789192
vt 0.114270 0.789191
vt 0.124116 0.793957
vt 0.117886 0.805444
vt 0.109484 0.800732
vt 0.111972 0.807437
vt 0.117733 0.810087
vt 0.117730 0.810087
vt 0.111969 0.807437
vt 0.107767 0.815775
vt 0.103900 0.813653
vt 0.103898 0.813653
vt 0.107764 0.815775
vt 0.105720 0.819796
vt 0.105717 0.819796
vt 0.105560 0.829705
vt 0.111672 0.822725
vt 0.096396 0.825144
vt 0.096393 0.825144
vt 0.105557 0.829705
vt 0.092400 0.856454
vt 0.079921 0.849102
vt 0.087895 0.819258
vt 0.068437 0.840326
vt 0.111669 0.822725
vt 0.087893 0.819258
vt 0.068338 0.782100
vt 0.040593 0.784706
vt 0.043622 0.801649
vt 0.070109 0.795061
vt 0.070106 0.795061
vt 0.068335 0.782100
vt 0.052483 0.821232
vt 0.073916 0.808563
vt 0.073913 0.808563
vt 0.095749 0.809032
vt 0.095746 0.809031
vt 0.084470 0.803368
vt 0.084467 0.803368
vt 0.101277 0.797413
vt 0.101274 0.797412
vt 0.084895 0.793792
vt 0.084892 0.793792
vt 0.105283 0.785735
vt 0.105280 0.785735
vt 0.086936 0.782019
vt 0.086934 0.782019
vt 0.119372 0.865778
vt 0.105044 0.861802
vt 0.115202 0.835138
vt 0.122324 0.850880
vt 0.190659 0.842278
vt 0.185857 0.844454
vt 0.189368 0.853483
vt 0.194567 0.851348
vt 0.185854 0.844454
vt 0.190656 0.842277
vt 0.198605 0.849678
vt 0.194758 0.840362
vt 0.194756 0.840362
vt 0.123452 0.769716
vt 0.135089 0.775721
vt 0.135086 0.775721
vt 0.123449 0.769715
vt 0.111568 0.764349
vt 0.111565 0.764349
vt 0.087743 0.759213
vt 0.087740 0.759213
vt 0.063506 0.758199
vt 0.063503 0.758199
vt 0.039632 0.758506
vt 0.039525 0.754245
vt 0.062169 0.754314
vt 0.062166 0.754314
vt 0.037561 0.736050
vt 0.063734 0.735048
vt 0.063731 0.735048
vt 0.087420 0.755008
vt 0.087417 0.755008
vt 0.112193 0.760297
vt 0.112190 0.760297
vt 0.125033 0.765926
vt 0.125030 0.765925
vt 0.137078 0.772092
vt 0.137076 0.772092
vt 0.144721 0.783080
vt 0.147510 0.779209
vt 0.147507 0.779209
vt 0.144718 0.783079
vt 0.191314 0.830713
vt 0.185292 0.831639
vt 0.185289 0.831639
vt 0.191311 0.830713
vt 0.191393 0.815292
vt 0.178694 0.815701
vt 0.178691 0.815701
vt 0.191390 0.815292
vt 0.173413 0.805252
vt 0.184738 0.803916
vt 0.186130 0.781411
vt 0.165258 0.795785
vt 0.173416 0.805253
vt 0.184741 0.803916
vt 0.165255 0.795785
vt 0.186127 0.781411
vt 0.197422 0.801862
vt 0.197419 0.801862
vt 0.198605 0.778733
vt 0.198602 0.778733
vt 0.174972 0.772565
vt 0.157971 0.787248
vt 0.157968 0.787248
vt 0.174969 0.772565
vt 0.160590 0.762271
vt 0.160588 0.762271
vt 0.191690 0.765925
vt 0.191687 0.765924
vt 0.169728 0.747639
vt 0.169726 0.747639
vt 0.148049 0.754524
vt 0.148046 0.754524
vt 0.133067 0.749020
vt 0.133064 0.749019
vt 0.154962 0.740065
vt 0.154959 0.740064
vt 0.139012 0.733465
vt 0.139009 0.733465
vt 0.118559 0.743835
vt 0.118556 0.743835
vt 0.090915 0.737241
vt 0.090911 0.737241
vt 0.122703 0.727232
vt 0.122700 0.727231
vt 0.092225 0.720392
vt 0.092222 0.720392
vt 0.064285 0.717643
vt 0.035435 0.718636
vt 0.064281 0.717643
vt 0.115205 0.835138
vt 0.122327 0.850880
vt 0.144467 0.867580
vt 0.143306 0.854956
vt 0.143309 0.854956
vt 0.158002 0.853731
vt 0.161080 0.864793
vt 0.158000 0.853731
vt 0.176826 0.847477
vt 0.181056 0.857085
vt 0.176823 0.847477
vt 0.181093 0.832049
vt 0.181090 0.832048
vt 0.171045 0.831675
vt 0.171042 0.831674
vt 0.174795 0.817494
vt 0.174792 0.817493
vt 0.169361 0.808710
vt 0.169358 0.808710
vt 0.161823 0.798559
vt 0.161820 0.798558
vt 0.154538 0.791032
vt 0.154535 0.791032
vt 0.119425 0.822605
vt 0.113417 0.818739
vt 0.119422 0.822605
vt 0.113414 0.818739
vt 0.142414 0.842457
vt 0.142412 0.842456
vt 0.153532 0.840780
vt 0.153529 0.840780
vt 0.166348 0.822077
vt 0.166345 0.822077
vt 0.116847 0.811856
vt 0.122730 0.815239
vt 0.125681 0.809699
vt 0.122727 0.815238
vt 0.116844 0.811856
vt 0.125678 0.809699
vt 0.140597 0.832176
vt 0.140594 0.832176
vt 0.147629 0.826829
vt 0.147627 0.826829
vt 0.154677 0.805606
vt 0.147436 0.798082
vt 0.147433 0.798081
vt 0.154675 0.805606
vt 0.161913 0.813695
vt 0.132793 0.798956
vt 0.132790 0.798956
vt 0.161910 0.813695
vn -0.8953 0.4370 0.0866
vn -0.9248 0.3727 -0.0756
vn -0.9955 0.0651 -0.0693
vn -0.9961 0.0324 0.0821
vn 0.9961 0.0324 0.0821
vn 0.9955 0.0651 -0.0693
vn 0.9248 0.3727 -0.0756
vn 0.8953 0.4370 0.0866
vn -0.7991 0.6011 0.0043
vn -0.8388 0.5383 -0.0811
vn 0.8388 0.5383 -0.0811
vn 0.7991 0.6011 0.0043
vn -0.6330 0.7737 0.0234
vn -0.6066 0.7824 0.1412
vn 0.6066 0.7824 0.1412
vn 0.6330 0.7737 0.0234
vn -0.4746 0.8783 0.0580
vn 0.4746 0.8783 0.0580
vn -0.3110 0.9503 -0.0139
vn -0.4942 0.8678 -0.0514
vn -0.3136 0.9424 0.1163
vn 0.3136 0.9424 0.1163
vn 0.3110 0.9503 -0.0139
vn 0.0000 1.0000 -0.0032
vn 0.0000 0.9941 0.1082
vn -0.3182 0.9047 0.2833
vn 0.0000 0.9550 0.2966
vn 0.4942 0.8678 -0.0514
vn 0.3182 0.9047 0.2833
vn -0.3574 0.0489 0.9326
vn 0.0000 0.0622 0.9980
vn 0.0000 0.3564 0.9343
vn -0.3396 0.3519 0.8722
vn 0.3396 0.3519 0.8722
vn 0.3574 0.0489 0.9326
vn 0.0000 0.7667 0.6419
vn -0.3009 0.7370 0.6052
vn 0.3009 0.7370 0.6052
vn -0.5850 0.7579 0.2887
vn 0.5850 0.7579 0.2887
vn -0.5184 0.6818 0.5161
vn 0.5184 0.6818 0.5161
vn -0.8400 0.4236 0.3391
vn 0.8400 0.4236 0.3391
vn -0.6475 0.3680 0.6672
vn 0.6475 0.3681 0.6672
vn -0.9346 0.0156 0.3553
vn 0.9346 0.0156 0.3553
vn -0.7137 0.0254 0.6999
vn 0.7137 0.0254 0.6999
vn 0.0000 0.9697 -0.2441
vn 0.0000 0.9978 -0.0660
vn 0.3280 0.9289 -0.1718
vn 0.2292 0.9382 -0.2593
vn -0.0800 0.4308 -0.8989
vn -0.1172 0.3723 -0.9207
vn 0.0000 0.3342 -0.9425
vn 0.0000 0.3627 -0.9319
vn 0.1172 0.3723 -0.9207
vn 0.0800 0.4308 -0.8989
vn 0.0000 0.2337 -0.9723
vn -0.0593 0.3010 -0.9518
vn 0.0593 0.3010 -0.9518
vn -0.9868 -0.1323 0.0930
vn -0.9962 -0.0733 -0.0464
vn 0.9962 -0.0733 -0.0464
vn 0.9868 -0.1323 0.0930
vn -0.9248 -0.1861 0.3318
vn 0.9248 -0.1861 0.3319
vn -0.7085 -0.1810 0.6820
vn 0.7085 -0.1810 0.6820
vn -0.3429 -0.0897 0.9351
vn 0.3429 -0.0896 0.9351
vn 0.0000 -0.0194 0.9998
vn 0.0000 0.1889 0.9820
vn -0.3164 0.1375 0.9386
vn 0.3164 0.1375 0.9386
vn 0.0000 0.3781 0.9257
vn -0.3498 0.3716 0.8599
vn 0.3498 0.3716 0.8599
vn -0.7038 0.0758 0.7063
vn 0.7038 0.0758 0.7063
vn -0.9257 0.0942 0.3663
vn 0.9257 0.0942 0.3663
vn -0.9787 0.1536 0.1359
vn 0.9787 0.1536 0.1359
vn -0.9780 0.2084 -0.0041
vn 0.9780 0.2084 -0.0041
vn -0.9884 -0.0652 -0.1368
vn -0.9709 0.1991 -0.1332
vn 0.9709 0.1991 -0.1332
vn 0.9884 -0.0652 -0.1368
vn -0.3029 0.3664 -0.8797
vn -0.3250 0.4872 -0.8105
vn 0.3250 0.4872 -0.8105
vn 0.3029 0.3664 -0.8797
vn -0.5647 0.3554 -0.7448
vn -0.6043 0.3702 -0.7055
vn 0.6043 0.3702 -0.7055
vn 0.5647 0.3554 -0.7448
vn 0.7542 0.2483 -0.6078
vn 0.7125 0.3225 -0.6231
vn -0.8043 0.2908 -0.5181
vn -0.8574 0.1776 -0.4829
vn -0.7542 0.2484 -0.6078
vn -0.7125 0.3225 -0.6231
vn 0.8574 0.1776 -0.4829
vn 0.8043 0.2908 -0.5181
vn -0.7143 0.3066 -0.6291
vn 0.7143 0.3066 -0.6291
vn -0.7830 0.2824 -0.5541
vn 0.7830 0.2824 -0.5541
vn -0.8816 0.3102 -0.3558
vn -0.9417 0.1716 -0.2892
vn 0.9418 0.1716 -0.2892
vn 0.8815 0.3102 -0.3558
vn -0.9212 0.3476 -0.1747
vn 0.9212 0.3476 -0.1747
vn -0.8437 0.2889 -0.4524
vn 0.8437 0.2889 -0.4524
vn -0.9270 0.3161 -0.2017
vn 0.9270 0.3162 -0.2017
vn -0.9328 0.3602 0.0112
vn 0.9328 0.3602 0.0112
vn -0.9214 0.3568 0.1536
vn 0.9214 0.3568 0.1536
vn -0.9438 0.3304 0.0132
vn 0.9438 0.3304 0.0132
vn -0.9308 0.3303 0.1565
vn 0.9308 0.3303 0.1565
vn -0.8694 0.3547 0.3440
vn 0.8694 0.3547 0.3440
vn -0.6858 0.3615 0.6316
vn 0.6858 0.3615 0.6316
vn -0.8737 0.3347 0.3529
vn 0.8737 0.3347 0.3529
vn -0.6767 0.3496 0.6479
vn 0.6767 0.3496 0.6479
vn -0.3573 0.3665 0.8591
vn 0.0000 0.3726 0.9279
vn 0.3573 0.3665 0.8591
vn -0.3280 0.9289 -0.1718
vn -0.2292 0.9382 -0.2593
vn 0.0000 0.8109 -0.5852
vn 0.2256 0.7950 -0.5631
vn -0.2256 0.7950 -0.5631
vn -0.1974 0.4518 -0.8700
vn 0.0000 0.4542 -0.8909
vn 0.1974 0.4518 -0.8700
vn -0.1588 0.2016 -0.9665
vn 0.0000 0.1931 -0.9812
vn 0.1588 0.2016 -0.9665
vn -0.3441 0.3605 -0.8669
vn 0.3442 0.3604 -0.8669
vn -0.3784 0.1761 -0.9087
vn 0.3784 0.1761 -0.9087
vn -0.5793 0.2057 -0.7887
vn 0.5793 0.2057 -0.7887
vn -0.7370 0.0910 -0.6697
vn 0.7370 0.0910 -0.6697
vn -0.8653 0.0272 -0.5005
vn 0.8653 0.0271 -0.5005
vn -0.9550 -0.0397 -0.2938
vn 0.9550 -0.0397 -0.2938
vn -0.5671 0.7993 -0.1985
vn -0.6357 0.7700 -0.0555
vn 0.5671 0.7993 -0.1985
vn 0.6357 0.7699 -0.0555
vn -0.3971 0.7472 -0.5329
vn 0.3971 0.7472 -0.5329
vn -0.3886 0.4456 -0.8065
vn 0.3886 0.4456 -0.8065
vn -0.5466 0.1402 -0.8256
vn 0.5466 0.1402 -0.8256
vn -0.7318 0.6780 -0.0689
vn -0.7515 0.6208 -0.2231
vn -0.8849 0.3938 -0.2486
vn 0.7515 0.6208 -0.2232
vn 0.7318 0.6780 -0.0689
vn 0.8849 0.3938 -0.2486
vn -0.5599 0.6886 -0.4607
vn 0.5599 0.6886 -0.4607
vn -0.6831 0.4032 -0.6088
vn 0.6831 0.4032 -0.6088
vn -0.8584 0.1534 -0.4895
vn -0.9345 0.0637 -0.3502
vn 0.9345 0.0637 -0.3502
vn 0.8584 0.1535 -0.4895
vn -0.7586 0.1219 -0.6400
vn -0.9633 0.1154 -0.2422
vn 0.9633 0.1154 -0.2422
vn 0.7586 0.1219 -0.6400
usemtl Default_OBJ.004
s 1
f 1/1/1 2/2/2 3/3/3 4/4/4
f 5/5/5 6/6/6 7/7/7 8/8/8
f 9/9/9 10/10/10 2/2/2 1/1/1
f 8/8/8 7/7/7 11/11/11 12/12/12
f 13/13/13 9/9/9 1/1/1 14/14/14
f 15/15/15 8/8/8 12/12/12 16/16/16
f 13/13/13 14/14/14 17/17/17
f 18/18/18 15/15/15 16/16/16
f 19/19/19 20/20/20 17/17/17 21/21/21
f 22/22/22 23/23/23 24/24/24 25/25/25
f 25/25/25 24/24/24 19/19/19 21/21/21
f 21/21/21 26/26/26 27/27/27 25/25/25
f 22/22/22 18/18/18 28/28/28 23/23/23
f 25/25/25 27/27/27 29/29/29 22/22/22
f 30/30/30 31/31/31 32/32/32 33/33/33
f 34/34/34 32/32/32 31/31/31 35/35/35
f 33/33/33 32/32/32 36/36/36 37/37/37
f 36/36/36 27/27/27 26/26/26 37/37/37
f 38/38/38 29/29/29 27/27/27 36/36/36
f 38/38/38 36/36/36 32/32/32 34/34/34
f 21/21/21 17/17/17 14/14/14 39/39/39
f 40/40/40 15/15/15 18/18/18 22/22/22
f 26/26/26 21/21/21 39/39/39
f 40/40/40 22/22/22 29/29/29
f 41/41/41 37/37/37 26/26/26 39/39/39
f 40/40/40 29/29/29 38/38/38 42/42/42
f 39/39/39 14/14/14 1/1/1 43/43/43
f 44/44/44 8/8/8 15/15/15 40/40/40
f 45/45/45 41/41/41 39/39/39 43/43/43
f 44/44/44 40/40/40 42/42/42 46/46/46
f 45/45/45 33/33/33 37/37/37 41/41/41
f 42/42/42 38/38/38 34/34/34 46/46/46
f 43/43/43 1/1/1 4/4/4 47/47/47
f 48/48/48 5/5/5 8/8/8 44/44/44
f 49/49/49 30/30/30 33/33/33 45/45/45
f 46/46/46 34/34/34 35/35/35 50/50/50
f 49/49/49 45/45/45 43/43/43 47/47/47
f 48/48/48 44/44/44 46/46/46 50/50/50
f 51/51/51 52/52/52 53/53/53 54/54/54
f 55/55/55 56/56/56 57/57/57 58/58/58
f 58/58/58 57/57/57 59/59/59 60/60/60
f 55/55/55 58/58/58 61/61/61 62/62/62
f 63/63/63 61/61/61 58/58/58 60/60/60
f 64/64/64 4/4/4 3/3/3 65/65/65
f 66/66/66 6/6/6 5/5/5 67/67/67
f 47/47/47 4/4/4 64/64/64 68/68/68
f 69/69/69 67/67/67 5/5/5 48/48/48
f 70/70/70 49/49/49 47/47/47 68/68/68
f 69/69/69 48/48/48 50/50/50 71/71/71
f 72/72/72 30/30/30 49/49/49 70/70/70
f 71/71/71 50/50/50 35/35/35 73/73/73
f 74/74/74 31/31/31 30/30/30 72/72/72
f 73/73/73 35/35/35 31/31/31 74/74/74
f 75/75/75 74/74/74 72/72/72 76/76/76
f 77/77/77 73/73/73 74/74/74 75/75/75
f 78/78/78 75/75/75 76/76/76 79/79/79
f 80/80/80 77/77/77 75/75/75 78/78/78
f 76/76/76 72/72/72 70/70/70 81/81/81
f 82/82/82 71/71/71 73/73/73 77/77/77
f 81/81/81 70/70/70 68/68/68 83/83/83
f 84/84/84 69/69/69 71/71/71 82/82/82
f 83/83/83 68/68/68 64/64/64 85/85/85
f 86/86/86 67/67/67 69/69/69 84/84/84
f 85/85/85 64/64/64 65/65/65 87/87/87
f 88/88/88 66/66/66 67/67/67 86/86/86
f 87/87/87 65/65/65 89/89/89 90/90/90
f 91/91/91 92/92/92 66/66/66 88/88/88
f 93/93/93 94/94/94 55/55/55 62/62/62
f 63/63/63 60/60/60 95/95/95 96/96/96
f 97/97/97 98/98/98 94/94/94 93/93/93
f 96/96/96 95/95/95 99/99/99 100/100/100
f 99/99/99 101/101/101 102/102/102
f 103/103/103 104/104/104 105/105/105 106/106/106
f 106/106/106 105/105/105 98/98/98
f 102/102/102 101/101/101 107/107/107 108/108/108
f 106/106/106 98/98/98 97/97/97 109/109/109
f 110/110/110 100/100/100 99/99/99 102/102/102
f 111/111/111 103/103/103 106/106/106 109/109/109
f 110/110/110 102/102/102 108/108/108 112/112/112
f 113/113/113 114/114/114 104/104/104 103/103/103
f 108/108/108 107/107/107 115/115/115 116/116/116
f 117/117/117 90/90/90 114/114/114 113/113/113
f 116/116/116 115/115/115 91/91/91 118/118/118
f 113/113/113 103/103/103 111/111/111 119/119/119
f 120/120/120 112/112/112 108/108/108 116/116/116
f 121/121/121 117/117/117 113/113/113 119/119/119
f 120/120/120 116/116/116 118/118/118 122/122/122
f 123/123/123 87/87/87 90/90/90 117/117/117
f 118/118/118 91/91/91 88/88/88 124/124/124
f 125/125/125 85/85/85 87/87/87 123/123/123
f 124/124/124 88/88/88 86/86/86 126/126/126
f 123/123/123 117/117/117 121/121/121 127/127/127
f 128/128/128 122/122/122 118/118/118 124/124/124
f 129/129/129 125/125/125 123/123/123 127/127/127
f 128/128/128 124/124/124 126/126/126 130/130/130
f 131/131/131 83/83/83 85/85/85 125/125/125
f 126/126/126 86/86/86 84/84/84 132/132/132
f 133/133/133 81/81/81 83/83/83 131/131/131
f 132/132/132 84/84/84 82/82/82 134/134/134
f 133/133/133 79/79/79 76/76/76 81/81/81
f 82/82/82 77/77/77 80/80/80 134/134/134
f 131/131/131 125/125/125 129/129/129 135/135/135
f 136/136/136 130/130/130 126/126/126 132/132/132
f 137/137/137 133/133/133 131/131/131 135/135/135
f 136/136/136 132/132/132 134/134/134 138/138/138
f 139/139/139 140/140/140 78/78/78 79/79/79
f 139/139/139 79/79/79 133/133/133 137/137/137
f 80/80/80 78/78/78 140/140/140 141/141/141
f 138/138/138 134/134/134 80/80/80 141/141/141
f 142/142/142 52/52/52 51/51/51 143/143/143
f 19/19/19 24/24/24 52/52/52 142/142/142
f 53/53/53 52/52/52 24/24/24 23/23/23
f 144/144/144 51/51/51 54/54/54 145/145/145
f 146/146/146 143/143/143 51/51/51 144/144/144
f 147/147/147 146/146/146 144/144/144 148/148/148
f 148/148/148 144/144/144 145/145/145 149/149/149
f 150/150/150 147/147/147 148/148/148 151/151/151
f 151/151/151 57/57/57 56/56/56 150/150/150
f 152/152/152 59/59/59 57/57/57 151/151/151
f 151/151/151 148/148/148 149/149/149 152/152/152
f 153/153/153 56/56/56 55/55/55 94/94/94
f 95/95/95 60/60/60 59/59/59 154/154/154
f 155/155/155 150/150/150 56/56/56 153/153/153
f 154/154/154 59/59/59 152/152/152 156/156/156
f 157/157/157 153/153/153 94/94/94 98/98/98
f 99/99/99 95/95/95 154/154/154 158/158/158
f 159/159/159 157/157/157 98/98/98 105/105/105
f 101/101/101 99/99/99 158/158/158 160/160/160
f 161/161/161 159/159/159 105/105/105 104/104/104
f 107/107/107 101/101/101 160/160/160 162/162/162
f 163/163/163 161/161/161 104/104/104 114/114/114
f 115/115/115 107/107/107 162/162/162 164/164/164
f 114/114/114 90/90/90 89/89/89 163/163/163
f 164/164/164 92/92/92 91/91/91 115/115/115
f 20/20/20 19/19/19 142/142/142 165/165/165
f 165/165/165 166/166/166 20/20/20
f 167/167/167 53/53/53 23/23/23 28/28/28
f 28/28/28 168/168/168 167/167/167
f 169/169/169 142/142/142 143/143/143 146/146/146
f 53/53/53 170/170/170 145/145/145 54/54/54
f 171/171/171 169/169/169 146/146/146 147/147/147
f 171/171/171 147/147/147 150/150/150 155/155/155
f 149/149/149 145/145/145 170/170/170 172/172/172
f 156/156/156 152/152/152 149/149/149 172/172/172
f 173/173/173 155/155/155 153/153/153 157/157/157
f 158/158/158 154/154/154 156/156/156 174/174/174
f 175/175/175 166/166/166 165/165/165 176/176/176
f 10/10/10 175/175/175 176/176/176
f 177/177/177 2/2/2 10/10/10 176/176/176
f 178/178/178 167/167/167 168/168/168 179/179/179
f 178/178/178 179/179/179 11/11/11
f 178/178/178 11/11/11 7/7/7 180/180/180
f 176/176/176 165/165/165 181/181/181
f 182/182/182 167/167/167 178/178/178
f 181/181/181 165/165/165 142/142/142 169/169/169
f 170/170/170 53/53/53 167/167/167 182/182/182
f 183/183/183 171/171/171 155/155/155 173/173/173
f 174/174/174 156/156/156 172/172/172 184/184/184
f 183/183/183 181/181/181 169/169/169 171/171/171
f 177/177/177 176/176/176 181/181/181 183/183/183
f 172/172/172 170/170/170 182/182/182 184/184/184
f 184/184/184 182/182/182 178/178/178 180/180/180
f 185/185/185 161/161/161 163/163/163 186/186/186
f 187/187/187 164/164/164 162/162/162 188/188/188
f 189/189/189 185/185/185 186/186/186 190/190/190
f 189/189/189 159/159/159 161/161/161 185/185/185
f 191/191/191 187/187/187 188/188/188 192/192/192
f 188/188/188 162/162/162 160/160/160 192/192/192
f 3/3/3 2/2/2 177/177/177 190/190/190
f 190/190/190 177/177/177 183/183/183 189/189/189
f 190/190/190 89/89/89 65/65/65 3/3/3
f 186/186/186 163/163/163 89/89/89 190/190/190
f 189/189/189 173/173/173 157/157/157 159/159/159
f 183/183/183 173/173/173 189/189/189
f 191/191/191 180/180/180 7/7/7 6/6/6
f 192/192/192 184/184/184 180/180/180 191/191/191
f 6/6/6 66/66/66 92/92/92 191/191/191
f 191/191/191 92/92/92 164/164/164 187/187/187
f 160/160/160 158/158/158 174/174/174 192/192/192
f 192/192/192 174/174/174 184/184/184
f 28/28/28 18/18/18 16/16/16 168/168/168
f 12/12/12 11/11/11 179/179/179
f 12/12/12 179/179/179 168/168/168 16/16/16
f 13/13/13 17/17/17 20/20/20 166/166/166
f 10/10/10 9/9/9 175/175/175
f 9/9/9 13/13/13 166/166/166 175/175/175
