# Blender v2.92.0 OBJ File: 'New Nilfgaardian model work.blend'
# www.blender.org
mtllib Leather straps.mtl
o Leather_straps_Lower_plate_done.058
v 0.416595 0.475496 0.099947
v 0.430196 0.513639 0.082719
v 0.416429 0.468417 0.104924
v 0.437039 0.465252 0.100319
v 0.455946 0.508270 0.082820
v 0.440261 0.457476 0.091465
v 0.448442 0.439177 0.070306
v 0.418900 0.458355 0.090730
v 0.424891 0.441273 0.068308
v 0.428699 0.428557 0.017141
v 0.414066 0.474737 -0.039631
v 0.447534 0.426481 0.023872
v 0.444057 0.474221 -0.035886
v 0.463674 0.550630 0.016554
v 0.432603 0.554791 0.008147
v 0.460376 0.568300 0.040442
v 0.430015 0.571602 0.035799
v 0.454444 0.551289 0.065322
v 0.425502 0.554077 0.065492
v -0.416595 0.475496 0.099947
v -0.430196 0.513639 0.082719
v -0.416429 0.468417 0.104924
v -0.437039 0.465252 0.100319
v -0.455946 0.508270 0.082820
v -0.440261 0.457476 0.091465
v -0.448442 0.439177 0.070306
v -0.418900 0.458355 0.090730
v -0.424891 0.441273 0.068308
v -0.428699 0.428557 0.017141
v -0.414066 0.474737 -0.039631
v -0.447534 0.426481 0.023872
v -0.444057 0.474221 -0.035886
v -0.463674 0.550630 0.016554
v -0.432603 0.554791 0.008147
v -0.460376 0.568300 0.040442
v -0.430015 0.571602 0.035799
v -0.454444 0.551289 0.065322
v -0.425502 0.554077 0.065492
vt 0.289655 0.346754
vt 0.293813 0.356462
vt 0.287974 0.357443
vt 0.284964 0.348716
vt 0.284861 0.346919
vt 0.286162 0.343496
vt 0.290883 0.344511
vt 0.288704 0.338042
vt 0.293925 0.339218
vt 0.291345 0.327364
vt 0.295399 0.329312
vt 0.290228 0.311827
vt 0.296850 0.313450
vt 0.296515 0.378355
vt 0.296850 0.398131
vt 0.290333 0.400135
vt 0.289501 0.380314
vt 0.288055 0.373714
vt 0.294878 0.372349
vt 0.293374 0.366118
vt 0.286828 0.366575
vt 0.289655 0.346754
vt 0.284964 0.348716
vt 0.287974 0.357443
vt 0.293813 0.356462
vt 0.284861 0.346919
vt 0.290883 0.344511
vt 0.286162 0.343496
vt 0.293925 0.339218
vt 0.288704 0.338042
vt 0.295399 0.329312
vt 0.291345 0.327364
vt 0.296850 0.313450
vt 0.290228 0.311827
vt 0.296515 0.378355
vt 0.289501 0.380314
vt 0.290333 0.400135
vt 0.296850 0.398131
vt 0.294878 0.372349
vt 0.288055 0.373714
vt 0.293374 0.366118
vt 0.286828 0.366575
vn 0.0835 -0.1907 0.9781
vn 0.0624 0.3738 0.9254
vn 0.1051 0.3879 0.9157
vn 0.1973 0.4691 0.8608
vn 0.1693 -0.1864 0.9678
vn -0.0572 -0.8094 0.5845
vn 0.0186 -0.7647 0.6442
vn -0.1186 -0.8764 0.4668
vn -0.1530 -0.8513 0.5019
vn 0.0415 -0.9471 -0.3182
vn -0.0603 -0.9921 -0.1100
vn 0.1501 -0.2795 -0.9483
vn 0.1238 -0.1232 -0.9846
vn 0.1210 0.7332 -0.6691
vn 0.2166 0.6663 -0.7135
vn 0.1509 0.9885 0.0038
vn 0.1102 0.9921 0.0605
vn 0.0585 0.6359 0.7695
vn 0.0573 0.6601 0.7490
vn -0.0609 -0.3580 0.9317
vn -0.1492 0.4077 0.9008
vn -0.0617 0.3542 0.9332
vn -0.1066 0.3667 0.9242
vn -0.2046 0.0433 0.9779
vn 0.1397 -0.8091 0.5708
vn 0.0447 -0.7714 0.6347
vn 0.0926 -0.9305 0.3543
vn 0.1170 -0.8940 0.4325
vn 0.0569 -0.9929 -0.1043
vn 0.0246 -0.9427 -0.3328
vn -0.2374 -0.1705 -0.9563
vn -0.2239 -0.0882 -0.9706
vn -0.2949 0.6485 -0.7017
vn -0.2129 0.6558 -0.7242
vn -0.1809 0.9827 -0.0405
vn -0.1568 0.9876 -0.0055
vn -0.0514 0.6506 0.7577
vn -0.0520 0.6443 0.7630
usemtl mat0.066
s 1
f 4/1/1 5/2/2 2/3/3 1/4/4
f 1/4/4 3/5/5 4/1/1
f 4/1/1 3/5/5 8/6/6 6/7/7
f 6/7/7 8/6/6 9/8/8 7/9/9
f 7/9/9 9/8/8 10/10/10 12/11/11
f 12/11/11 10/10/10 11/12/12 13/13/13
f 14/14/14 13/15/13 11/16/12 15/17/15
f 14/14/14 15/17/15 17/18/16 16/19/17
f 18/20/18 16/19/17 17/18/16 19/21/19
f 5/2/2 18/20/18 19/21/19 2/3/3
usemtl mat0.260
f 23/22/20 20/23/21 21/24/22 24/25/23
f 20/23/21 23/22/20 22/26/24
f 23/22/20 25/27/25 27/28/26 22/26/24
f 25/27/25 26/29/27 28/30/28 27/28/26
f 26/29/27 31/31/29 29/32/30 28/30/28
f 31/31/29 32/33/31 30/34/32 29/32/30
f 33/35/33 34/36/34 30/37/32 32/38/31
f 33/35/33 35/39/35 36/40/36 34/36/34
f 37/41/37 38/42/38 36/40/36 35/39/35
f 24/25/23 21/24/22 38/42/38 37/41/37
