# Blender v2.92.0 OBJ File: 'New Nilfgaardian model work.blend'
# www.blender.org
mtllib legs.mtl
o Arse_Legs_done.001
v 0.078285 -0.042743 -0.130620
v 0.075831 0.054036 -0.131251
v 0.089102 -0.128158 -0.125159
v 0.114036 -0.301391 -0.112754
v 0.037803 -0.227636 -0.091809
v 0.215124 -0.312836 -0.011822
v 0.126425 -0.324034 0.126152
v 0.216612 -0.196723 -0.037046
v 0.196286 -0.082891 -0.053648
v 0.172800 0.011690 -0.068675
v 0.138726 0.085821 -0.073468
v 0.143933 0.039606 0.065106
v 0.140461 0.107287 0.038565
v 0.153074 -0.049990 0.091882
v 0.130387 -0.172590 0.133410
v 0.058049 -0.067759 0.132320
v 0.069351 0.045754 0.099403
v 0.065351 0.106289 0.070976
v 0.035002 -0.176310 0.133150
v 0.043657 -0.347021 0.097020
v 0.030420 -0.328834 -0.002843
v 0.142045 -0.904186 0.017871
v 0.176845 -0.902574 0.027646
v 0.206521 -0.900179 0.036984
v 0.207951 -0.897071 0.109353
v 0.167093 -0.771231 0.028525
v 0.143273 -0.777275 0.014967
v 0.197648 -0.763689 0.045805
v 0.216010 -0.755579 0.099982
v 0.225171 -0.704111 0.075260
v 0.241007 -0.532045 0.039410
v 0.242313 -0.625218 0.069108
v 0.178402 -0.565995 0.166022
v 0.182090 -0.656487 0.174376
v 0.179258 -0.754472 0.163619
v 0.111766 -0.898947 0.106390
v 0.162464 -0.894832 0.149678
v 0.092553 -0.759367 0.118728
v 0.073291 -0.635709 0.105363
v 0.143523 -0.667687 -0.005102
v 0.142088 -0.562485 -0.046554
v 0.136279 -0.515471 -0.088302
v 0.246774 -0.424184 0.033525
v 0.129720 -0.421937 -0.111595
v 0.160565 -0.495029 0.135371
v 0.075286 -0.522080 0.073932
v 0.053747 -0.451375 0.044977
v 0.077194 -0.404929 0.121707
v 0.149425 -0.407114 0.135949
v 0.149559 -1.011671 -0.105002
v 0.134415 -1.004177 0.006039
v 0.183373 -0.986986 -0.103019
v 0.192229 -0.996203 -0.153232
v 0.229649 -0.996158 -0.140087
v 0.215893 -0.988038 -0.094499
v 0.269617 -1.012433 -0.081229
v 0.254210 -0.996343 -0.131709
v 0.240322 -0.989061 -0.086625
v 0.238100 -1.002857 0.036733
v 0.154016 -0.993204 0.157732
v 0.112004 -0.992912 0.131917
v 0.112349 -1.044365 0.125779
v 0.155291 -1.045429 0.152375
v 0.201738 -0.998285 0.123444
v 0.114748 -0.998850 0.086187
v 0.230101 -1.018564 -0.183438
v 0.195220 -1.028824 -0.174666
v 0.257076 -1.031148 -0.149272
v 0.149227 -1.042568 -0.115351
v 0.270096 -1.044719 -0.090913
v 0.142290 -1.045719 0.005702
v 0.237156 -1.046412 0.035973
v 0.200605 -1.046222 0.113652
v 0.122458 -1.045258 0.082056
v 0.000000 0.060240 -0.142486
v 0.000000 -0.060801 -0.131433
v 0.000000 -0.125173 -0.102620
v 0.000000 -0.080146 0.125585
v 0.000000 0.039905 0.097802
v 0.000000 0.104648 0.069541
v 0.000000 -0.170374 0.093386
v 0.000000 -0.208843 0.039830
v 0.000000 -0.186620 -0.086242
v -0.078285 -0.042743 -0.130620
v -0.075831 0.054036 -0.131251
v -0.089102 -0.128158 -0.125159
v -0.114036 -0.301391 -0.112754
v -0.037803 -0.227636 -0.091809
v -0.215124 -0.312836 -0.011822
v -0.126425 -0.324034 0.126152
v -0.216612 -0.196723 -0.037046
v -0.196286 -0.082891 -0.053648
v -0.172800 0.011690 -0.068675
v -0.138726 0.085821 -0.073468
v -0.143933 0.039606 0.065106
v -0.140461 0.107287 0.038565
v -0.153074 -0.049990 0.091882
v -0.130387 -0.172590 0.133410
v -0.058049 -0.067759 0.132320
v -0.069351 0.045754 0.099403
v -0.065351 0.106289 0.070976
v -0.035002 -0.176310 0.133150
v -0.043657 -0.347021 0.097020
v -0.030420 -0.328834 -0.002843
v -0.142045 -0.904186 0.017871
v -0.176845 -0.902574 0.027646
v -0.206521 -0.900179 0.036984
v -0.207951 -0.897071 0.109353
v -0.167093 -0.771231 0.028525
v -0.143273 -0.777275 0.014967
v -0.197648 -0.763689 0.045805
v -0.216010 -0.755579 0.099982
v -0.225171 -0.704111 0.075260
v -0.241007 -0.532045 0.039410
v -0.242313 -0.625218 0.069108
v -0.178402 -0.565995 0.166022
v -0.182090 -0.656487 0.174376
v -0.179258 -0.754472 0.163619
v -0.111766 -0.898947 0.106390
v -0.162464 -0.894832 0.149678
v -0.092553 -0.759367 0.118728
v -0.073291 -0.635709 0.105363
v -0.143523 -0.667687 -0.005102
v -0.142088 -0.562485 -0.046554
v -0.136279 -0.515471 -0.088302
v -0.246774 -0.424184 0.033525
v -0.129720 -0.421937 -0.111595
v -0.160565 -0.495029 0.135371
v -0.075286 -0.522080 0.073932
v -0.053747 -0.451375 0.044977
v -0.077194 -0.404929 0.121707
v -0.149425 -0.407114 0.135949
v -0.149559 -1.011671 -0.105002
v -0.134415 -1.004177 0.006039
v -0.183373 -0.986986 -0.103019
v -0.192229 -0.996203 -0.153232
v -0.229649 -0.996158 -0.140087
v -0.215893 -0.988038 -0.094499
v -0.269617 -1.012433 -0.081229
v -0.254210 -0.996343 -0.131709
v -0.240322 -0.989061 -0.086625
v -0.238100 -1.002857 0.036733
v -0.154016 -0.993204 0.157732
v -0.112004 -0.992912 0.131917
v -0.112349 -1.044365 0.125779
v -0.155291 -1.045429 0.152375
v -0.201738 -0.998285 0.123444
v -0.114748 -0.998850 0.086187
v -0.230101 -1.018564 -0.183438
v -0.195220 -1.028824 -0.174666
v -0.257076 -1.031148 -0.149272
v -0.149227 -1.042568 -0.115351
v -0.270096 -1.044719 -0.090913
v -0.142290 -1.045719 0.005702
v -0.237156 -1.046412 0.035973
v -0.200605 -1.046222 0.113652
v -0.122458 -1.045258 0.082056
vt 0.923640 0.108612
vt 0.927124 0.118870
vt 0.908309 0.130362
vt 0.906223 0.118370
vt 0.902968 0.046160
vt 0.900228 0.062399
vt 0.877190 0.052912
vt 0.884466 0.038919
vt 0.920179 0.050790
vt 0.913308 0.068494
vt 0.955350 0.059060
vt 0.935831 0.069183
vt 0.968873 0.032648
vt 0.945339 0.026531
vt 0.921763 0.022647
vt 0.901629 0.020432
vt 0.884860 0.020222
vt 0.893534 0.157386
vt 0.902654 0.184810
vt 0.885686 0.186615
vt 0.879824 0.163545
vt 0.911061 0.150841
vt 0.922793 0.179818
vt 0.932204 0.136810
vt 0.961148 0.127585
vt 0.968873 0.161571
vt 0.946285 0.172911
vt 0.887465 0.141771
vt 0.874746 0.147195
vt 0.868925 0.134610
vt 0.882495 0.128242
vt 0.960847 0.108460
vt 0.956127 0.088030
vt 0.926383 0.087502
vt 0.931037 0.097310
vt 0.239067 0.134816
vt 0.218036 0.130760
vt 0.217036 0.136533
vt 0.237435 0.139073
vt 0.241162 0.129290
vt 0.219027 0.125808
vt 0.243921 0.120313
vt 0.221877 0.114713
vt 0.251925 0.124597
vt 0.263916 0.126030
vt 0.271625 0.109859
vt 0.278082 0.129391
vt 0.259338 0.109597
vt 0.245539 0.108915
vt 0.223309 0.094406
vt 0.245278 0.094227
vt 0.240878 0.076666
vt 0.220693 0.079583
vt 0.223631 0.105110
vt 0.263639 0.092358
vt 0.258342 0.072610
vt 0.254821 0.143649
vt 0.272284 0.150163
vt 0.280745 0.155974
vt 0.294580 0.130293
vt 0.296878 0.159028
vt 0.316996 0.158722
vt 0.312800 0.135626
vt 0.283650 0.109042
vt 0.282926 0.061287
vt 0.275177 0.067096
vt 0.282690 0.089845
vt 0.297840 0.057508
vt 0.295101 0.085527
vt 0.300902 0.098509
vt 0.298140 0.109215
vt 0.311881 0.108678
vt 0.311125 0.094361
vt 0.315023 0.078826
vt 0.316996 0.056794
vt 0.591344 0.073602
vt 0.587737 0.103151
vt 0.580478 0.070663
vt 0.585920 0.058552
vt 0.576969 0.054938
vt 0.572336 0.066480
vt 0.591281 0.218773
vt 0.586624 0.229988
vt 0.581635 0.219927
vt 0.582107 0.234046
vt 0.575660 0.223451
vt 0.587830 0.187710
vt 0.561496 0.107375
vt 0.553465 0.103093
vt 0.585325 0.148552
vt 0.585510 0.136561
vt 0.598576 0.135467
vt 0.598758 0.148937
vt 0.559914 0.184455
vt 0.553475 0.189018
vt 0.559986 0.165401
vt 0.586305 0.163235
vt 0.561474 0.131771
vt 0.560395 0.149432
vt 0.586823 0.125071
vt 0.585615 0.045383
vt 0.593017 0.052073
vt 0.654257 0.091901
vt 0.645579 0.087549
vt 0.637375 0.095978
vt 0.593168 0.236226
vt 0.586545 0.245323
vt 0.599511 0.070712
vt 0.599461 0.221869
vt 0.599287 0.102913
vt 0.663690 0.109317
vt 0.631713 0.110852
vt 0.599511 0.187604
vt 0.660714 0.140661
vt 0.635183 0.144706
vt 0.599000 0.164860
vt 0.598982 0.123693
vt 0.641514 0.166072
vt 0.651624 0.177786
vt 0.663690 0.172648
vt 0.662808 0.161031
vt 0.908309 0.130362
vt 0.927124 0.118870
vt 0.902968 0.046160
vt 0.884466 0.038919
vt 0.920179 0.050790
vt 0.955350 0.059060
vt 0.935831 0.069183
vt 0.968873 0.032648
vt 0.945339 0.026531
vt 0.921763 0.022647
vt 0.901629 0.020432
vt 0.884860 0.020222
vt 0.893534 0.157386
vt 0.879824 0.163545
vt 0.885686 0.186615
vt 0.902654 0.184810
vt 0.911061 0.150841
vt 0.922793 0.179818
vt 0.932204 0.136810
vt 0.946285 0.172911
vt 0.968873 0.161571
vt 0.961148 0.127585
vt 0.887465 0.141771
vt 0.874746 0.147195
vt 0.960847 0.108460
vt 0.956127 0.088030
vt 0.239067 0.134816
vt 0.237435 0.139073
vt 0.217036 0.136533
vt 0.218036 0.130760
vt 0.241162 0.129290
vt 0.219027 0.125808
vt 0.243921 0.120313
vt 0.221877 0.114713
vt 0.251925 0.124597
vt 0.263916 0.126030
vt 0.271625 0.109859
vt 0.278082 0.129391
vt 0.259338 0.109597
vt 0.245539 0.108915
vt 0.223309 0.094406
vt 0.220693 0.079583
vt 0.240878 0.076666
vt 0.245278 0.094227
vt 0.223631 0.105110
vt 0.263639 0.092358
vt 0.258342 0.072610
vt 0.254821 0.143649
vt 0.272284 0.150163
vt 0.280745 0.155974
vt 0.294580 0.130293
vt 0.296878 0.159028
vt 0.312800 0.135626
vt 0.316996 0.158722
vt 0.283650 0.109042
vt 0.282926 0.061287
vt 0.282690 0.089845
vt 0.275177 0.067096
vt 0.297840 0.057508
vt 0.295101 0.085527
vt 0.300902 0.098509
vt 0.298140 0.109215
vt 0.311881 0.108678
vt 0.311125 0.094361
vt 0.315023 0.078826
vt 0.316996 0.056794
vt 0.591344 0.073602
vt 0.580478 0.070663
vt 0.587737 0.103151
vt 0.585920 0.058552
vt 0.576969 0.054938
vt 0.572336 0.066480
vt 0.591281 0.218773
vt 0.581635 0.219927
vt 0.586624 0.229988
vt 0.575660 0.223451
vt 0.582107 0.234046
vt 0.587830 0.187710
vt 0.561496 0.107375
vt 0.553465 0.103093
vt 0.585325 0.148552
vt 0.598758 0.148937
vt 0.598576 0.135467
vt 0.585510 0.136561
vt 0.559914 0.184455
vt 0.553475 0.189018
vt 0.559986 0.165401
vt 0.586305 0.163235
vt 0.561474 0.131771
vt 0.560395 0.149432
vt 0.586823 0.125071
vt 0.593017 0.052073
vt 0.585615 0.045383
vt 0.654257 0.091901
vt 0.637375 0.095978
vt 0.645579 0.087549
vt 0.593168 0.236226
vt 0.586545 0.245323
vt 0.599511 0.070712
vt 0.599461 0.221869
vt 0.599287 0.102913
vt 0.663690 0.109317
vt 0.631713 0.110852
vt 0.599511 0.187604
vt 0.660714 0.140661
vt 0.635183 0.144706
vt 0.599000 0.164860
vt 0.598982 0.123693
vt 0.641514 0.166072
vt 0.662808 0.161031
vt 0.663690 0.172648
vt 0.651624 0.177786
vn 0.0000 -0.2634 0.9647
vn -0.3314 -0.0783 0.9402
vn 0.0219 0.1624 0.9865
vn 0.0000 0.0650 0.9979
vn 0.2816 -0.0509 -0.9582
vn 0.0000 -0.1541 -0.9880
vn 0.0000 -0.0526 -0.9986
vn 0.3538 0.0273 -0.9349
vn 0.1914 -0.1024 -0.9761
vn 0.0000 -0.2492 -0.9684
vn 0.0070 -0.2329 -0.9724
vn -0.4964 -0.3294 -0.8032
vn 0.9886 0.0667 -0.1352
vn 0.9721 -0.0013 -0.2346
vn 0.9389 0.0948 -0.3308
vn 0.8959 0.1731 -0.4090
vn 0.8820 0.2099 -0.4217
vn 0.7519 0.3186 0.5772
vn 0.8038 0.3656 0.4693
vn 0.7239 0.1986 0.6607
vn 0.5073 0.0347 0.8610
vn 0.3345 0.1022 0.9368
vn 0.1690 0.3363 0.9264
vn 0.1813 0.4060 0.8957
vn 0.0000 0.4111 0.9116
vn 0.0000 0.3313 0.9435
vn -0.7874 -0.1372 0.6009
vn -0.9238 -0.2868 -0.2534
vn 0.0000 -0.5742 -0.8187
vn 0.0000 -0.9719 0.2355
vn 0.4537 -0.0608 -0.8891
vn 0.2949 0.4917 -0.8192
vn -0.6188 0.2877 -0.7309
vn -0.3393 -0.1132 -0.9338
vn 0.7823 -0.0553 -0.6204
vn 0.8607 0.3310 -0.3869
vn 0.9709 -0.1161 0.2094
vn 0.9207 0.0276 0.3892
vn 0.8935 -0.1866 -0.4085
vn 0.9888 -0.0970 -0.1133
vn 0.2153 0.2701 0.9384
vn 0.9922 -0.0471 -0.1155
vn 0.2538 0.0037 0.9672
vn 0.2336 -0.0873 0.9684
vn -0.9642 0.0198 0.2645
vn -0.9408 -0.1018 0.3234
vn 0.0859 0.0073 0.9962
vn -0.9618 -0.0397 0.2707
vn -0.1836 -0.2506 -0.9505
vn -0.1540 -0.5223 -0.8387
vn -0.0986 -0.4578 -0.8835
vn 0.9931 0.1023 0.0575
vn -0.0452 -0.2391 -0.9699
vn 0.1856 0.1511 0.9709
vn -0.9594 -0.1755 0.2207
vn -0.9653 -0.2511 -0.0712
vn -0.5794 -0.0962 0.8093
vn 0.3425 0.1448 0.9283
vn -0.8634 0.4166 -0.2844
vn -0.9669 0.0254 -0.2539
vn -0.3190 0.8878 -0.3316
vn -0.3802 0.7611 -0.5255
vn 0.2100 0.8936 -0.3966
vn 0.1085 0.9301 -0.3507
vn 0.9188 0.3890 0.0671
vn 0.6568 0.6974 -0.2868
vn 0.4617 0.8762 -0.1379
vn 0.9651 0.1139 0.2357
vn 0.0132 -0.0002 0.9999
vn -0.8822 -0.0001 0.4709
vn -0.7224 -0.6191 0.3078
vn 0.0428 -0.6429 0.7647
vn 0.8051 -0.0059 0.5931
vn -0.9813 -0.0380 -0.1886
vn 0.3142 0.0279 -0.9489
vn -0.3305 -0.3355 -0.8822
vn 0.7147 -0.4284 -0.5529
vn -0.6967 -0.6152 -0.3690
vn 0.7531 -0.6531 -0.0795
vn -0.6277 -0.7704 -0.1116
vn 0.6637 -0.7120 0.2289
vn 0.5673 -0.7011 0.4319
vn -0.6588 -0.7418 -0.1251
vn -0.0219 0.1624 0.9865
vn 0.3314 -0.0783 0.9402
vn -0.2816 -0.0509 -0.9582
vn -0.3538 0.0273 -0.9349
vn -0.1914 -0.1024 -0.9761
vn -0.0070 -0.2329 -0.9724
vn 0.4964 -0.3294 -0.8032
vn -0.9886 0.0667 -0.1352
vn -0.9721 -0.0013 -0.2346
vn -0.9389 0.0948 -0.3308
vn -0.8959 0.1731 -0.4090
vn -0.8820 0.2099 -0.4217
vn -0.7519 0.3186 0.5772
vn -0.8038 0.3656 0.4693
vn -0.7239 0.1986 0.6607
vn -0.5073 0.0347 0.8610
vn -0.3345 0.1022 0.9368
vn -0.1690 0.3363 0.9264
vn -0.1813 0.4060 0.8957
vn 0.7874 -0.1372 0.6009
vn 0.9238 -0.2868 -0.2534
vn -0.4537 -0.0608 -0.8891
vn 0.3393 -0.1132 -0.9338
vn 0.6188 0.2877 -0.7309
vn -0.2949 0.4917 -0.8192
vn -0.7823 -0.0553 -0.6204
vn -0.8607 0.3310 -0.3869
vn -0.9709 -0.1161 0.2094
vn -0.9207 0.0276 0.3892
vn -0.8935 -0.1866 -0.4085
vn -0.9888 -0.0970 -0.1133
vn -0.2153 0.2701 0.9384
vn -0.9922 -0.0471 -0.1155
vn -0.2538 0.0037 0.9672
vn -0.2336 -0.0873 0.9684
vn 0.9642 0.0198 0.2645
vn 0.9408 -0.1018 0.3234
vn -0.0859 0.0073 0.9962
vn 0.9618 -0.0397 0.2707
vn 0.1836 -0.2506 -0.9505
vn 0.1540 -0.5223 -0.8387
vn 0.0986 -0.4578 -0.8835
vn -0.9931 0.1023 0.0575
vn 0.0452 -0.2391 -0.9699
vn -0.1856 0.1511 0.9709
vn 0.9594 -0.1755 0.2207
vn 0.9653 -0.2511 -0.0712
vn 0.5794 -0.0962 0.8093
vn -0.3425 0.1448 0.9283
vn 0.8634 0.4166 -0.2844
vn 0.3190 0.8878 -0.3316
vn 0.9669 0.0254 -0.2539
vn 0.3802 0.7611 -0.5255
vn -0.2100 0.8936 -0.3966
vn -0.1085 0.9301 -0.3507
vn -0.9188 0.3890 0.0671
vn -0.4617 0.8762 -0.1379
vn -0.6568 0.6974 -0.2868
vn -0.9651 0.1139 0.2357
vn -0.0132 -0.0002 0.9999
vn -0.0428 -0.6429 0.7647
vn 0.7224 -0.6191 0.3078
vn 0.8822 -0.0001 0.4709
vn -0.8051 -0.0059 0.5931
vn 0.9813 -0.0380 -0.1886
vn 0.3305 -0.3355 -0.8822
vn -0.3142 0.0279 -0.9489
vn -0.7147 -0.4284 -0.5529
vn 0.6967 -0.6152 -0.3690
vn -0.7531 -0.6531 -0.0795
vn 0.6277 -0.7704 -0.1116
vn -0.6637 -0.7120 0.2289
vn -0.5673 -0.7011 0.4319
vn 0.6588 -0.7418 -0.1251
usemtl None
s 1
f 81/1/1 19/2/2 16/3/3 78/4/4
f 1/5/5 76/6/6 75/7/7 2/8/8
f 3/9/9 77/10/10 76/6/6 1/5/5
f 4/11/11 5/12/12 3/9/9
f 6/13/13 4/11/11 8/14/14
f 8/14/14 4/11/11 3/9/9 9/15/15
f 9/15/15 3/9/9 1/5/5 10/16/16
f 11/17/17 10/16/16 1/5/5 2/8/8
f 12/18/18 10/19/16 11/20/17 13/21/19
f 14/22/20 9/23/15 10/19/16 12/18/18
f 15/24/21 7/25/22 6/26/13 8/27/14
f 15/24/21 8/27/14 9/23/15 14/22/20
f 16/3/3 14/22/20 12/18/18 17/28/23
f 17/28/23 12/18/18 13/21/19 18/29/24
f 80/30/25 79/31/26 17/28/23 18/29/24
f 15/24/21 14/22/20 16/3/3 19/2/2
f 20/32/27 7/25/22 15/24/21 19/2/2
f 79/31/26 78/4/4 16/3/3 17/28/23
f 20/32/27 19/2/2 81/1/1
f 21/33/28 5/12/12 4/11/11
f 3/9/9 5/12/12 77/10/10
f 77/10/10 5/12/12 21/33/28 83/34/29
f 83/34/29 21/33/28 82/35/30
f 82/35/30 21/33/28 20/32/27 81/1/1
f 26/36/31 23/37/32 22/38/33 27/39/34
f 28/40/35 24/41/36 23/37/32 26/36/31
f 29/42/37 25/43/38 24/41/36 28/40/35
f 29/42/37 28/40/35 30/44/39
f 29/42/37 30/44/39 32/45/40
f 33/46/41 32/45/40 31/47/42
f 34/48/43 32/45/40 33/46/41
f 29/42/37 32/45/40 34/48/43 35/49/44
f 36/50/45 38/51/46 27/52/34 22/53/33
f 37/54/47 35/49/44 38/51/46 36/50/45
f 25/43/38 29/42/37 35/49/44 37/54/47
f 39/55/48 38/51/46 35/49/44 34/48/43
f 34/48/43 33/46/41 39/55/48
f 27/52/34 38/51/46 39/55/48 40/56/49
f 30/44/39 28/40/35 40/57/49
f 26/36/31 27/39/34 40/57/49
f 40/57/49 28/40/35 26/36/31
f 32/45/40 30/44/39 40/57/49
f 31/47/42 32/45/40 40/57/49 41/58/50
f 31/47/42 41/58/50 42/59/51
f 43/60/52 31/47/42 42/59/51 44/61/53
f 43/60/52 44/61/53 4/62/11 6/63/13
f 33/46/41 31/47/42 45/64/54
f 42/65/51 41/66/50 46/67/55
f 41/66/50 40/56/49 39/55/48 46/67/55
f 44/68/53 42/65/51 46/67/55 47/69/56
f 46/67/55 39/55/48 33/46/41 45/64/54
f 46/67/55 45/64/54 48/70/57
f 49/71/58 45/64/54 31/47/42
f 43/60/52 6/63/13 7/72/22 49/71/58
f 31/47/42 43/60/52 49/71/58
f 48/70/57 45/64/54 49/71/58
f 7/72/22 48/70/57 49/71/58
f 20/73/27 47/69/56 46/67/55 48/70/57
f 20/73/27 48/70/57 7/72/22
f 21/74/28 47/69/56 20/73/27
f 4/75/11 44/68/53 47/69/56 21/74/28
f 50/76/59 51/77/60 52/78/61
f 53/79/62 50/76/59 52/78/61
f 54/80/63 53/79/62 52/78/61 55/81/64
f 56/82/65 57/83/66 58/84/67
f 57/83/66 54/85/63 55/86/64 58/84/67
f 59/87/68 56/82/65 58/84/67
f 52/78/61 51/77/60 22/88/33
f 23/89/32 55/81/64 52/78/61 22/88/33
f 60/90/69 61/91/70 62/92/71 63/93/72
f 59/87/68 58/84/67 24/94/36
f 58/84/67 55/86/64 23/95/32 24/94/36
f 25/96/38 64/97/73 59/87/68 24/94/36
f 36/98/45 61/91/70 60/90/69 37/99/47
f 22/88/33 51/77/60 65/100/74 36/98/45
f 65/100/74 61/91/70 36/98/45
f 37/99/47 60/90/69 64/97/73 25/96/38
f 53/79/62 54/80/63 66/101/75 67/102/76
f 67/103/76 66/104/75 68/105/77
f 68/106/77 66/107/75 54/85/63 57/83/66
f 50/76/59 53/79/62 67/102/76 69/108/78
f 70/109/79 68/106/77 57/83/66 56/82/65
f 51/77/60 50/76/59 69/108/78 71/110/80
f 69/111/78 67/103/76 68/105/77 70/112/79
f 72/113/81 70/109/79 56/82/65 59/87/68
f 71/114/80 69/111/78 70/112/79 72/115/81
f 64/97/73 60/90/69 63/93/72 73/116/82
f 74/117/83 62/92/71 61/91/70 65/100/74
f 73/118/82 63/119/72 62/120/71 74/121/83
f 65/100/74 51/77/60 71/110/80 74/117/83
f 74/121/83 71/114/80 72/115/81 73/118/82
f 73/116/82 72/113/81 59/87/68 64/97/73
f 81/1/1 78/4/4 99/122/84 102/123/85
f 84/124/86 85/125/87 75/7/7 76/6/6
f 86/126/88 84/124/86 76/6/6 77/10/10
f 87/127/89 86/126/88 88/128/90
f 89/129/91 91/130/92 87/127/89
f 91/130/92 92/131/93 86/126/88 87/127/89
f 92/131/93 93/132/94 84/124/86 86/126/88
f 94/133/95 85/125/87 84/124/86 93/132/94
f 95/134/96 96/135/97 94/136/95 93/137/94
f 97/138/98 95/134/96 93/137/94 92/139/93
f 98/140/99 91/141/92 89/142/91 90/143/100
f 98/140/99 97/138/98 92/139/93 91/141/92
f 99/122/84 100/144/101 95/134/96 97/138/98
f 100/144/101 101/145/102 96/135/97 95/134/96
f 80/30/25 101/145/102 100/144/101 79/31/26
f 98/140/99 102/123/85 99/122/84 97/138/98
f 103/146/103 102/123/85 98/140/99 90/143/100
f 79/31/26 100/144/101 99/122/84 78/4/4
f 103/146/103 81/1/1 102/123/85
f 104/147/104 87/127/89 88/128/90
f 86/126/88 77/10/10 88/128/90
f 77/10/10 83/34/29 104/147/104 88/128/90
f 83/34/29 82/35/30 104/147/104
f 82/35/30 81/1/1 103/146/103 104/147/104
f 109/148/105 110/149/106 105/150/107 106/151/108
f 111/152/109 109/148/105 106/151/108 107/153/110
f 112/154/111 111/152/109 107/153/110 108/155/112
f 112/154/111 113/156/113 111/152/109
f 112/154/111 115/157/114 113/156/113
f 116/158/115 114/159/116 115/157/114
f 117/160/117 116/158/115 115/157/114
f 112/154/111 118/161/118 117/160/117 115/157/114
f 119/162/119 105/163/107 110/164/106 121/165/120
f 120/166/121 119/162/119 121/165/120 118/161/118
f 108/155/112 120/166/121 118/161/118 112/154/111
f 122/167/122 117/160/117 118/161/118 121/165/120
f 117/160/117 122/167/122 116/158/115
f 110/164/106 123/168/123 122/167/122 121/165/120
f 113/156/113 123/169/123 111/152/109
f 109/148/105 123/169/123 110/149/106
f 123/169/123 109/148/105 111/152/109
f 115/157/114 123/169/123 113/156/113
f 114/159/116 124/170/124 123/169/123 115/157/114
f 114/159/116 125/171/125 124/170/124
f 126/172/126 127/173/127 125/171/125 114/159/116
f 126/172/126 89/174/91 87/175/89 127/173/127
f 116/158/115 128/176/128 114/159/116
f 125/177/125 129/178/129 124/179/124
f 124/179/124 129/178/129 122/167/122 123/168/123
f 127/180/127 130/181/130 129/178/129 125/177/125
f 129/178/129 128/176/128 116/158/115 122/167/122
f 129/178/129 131/182/131 128/176/128
f 132/183/132 114/159/116 128/176/128
f 126/172/126 132/183/132 90/184/100 89/174/91
f 114/159/116 132/183/132 126/172/126
f 131/182/131 132/183/132 128/176/128
f 90/184/100 132/183/132 131/182/131
f 103/185/103 131/182/131 129/178/129 130/181/130
f 103/185/103 90/184/100 131/182/131
f 104/186/104 103/185/103 130/181/130
f 87/187/89 104/186/104 130/181/130 127/180/127
f 133/188/133 135/189/134 134/190/135
f 136/191/136 135/189/134 133/188/133
f 137/192/137 138/193/138 135/189/134 136/191/136
f 139/194/139 141/195/140 140/196/141
f 140/196/141 141/195/140 138/197/138 137/198/137
f 142/199/142 141/195/140 139/194/139
f 135/189/134 105/200/107 134/190/135
f 106/201/108 105/200/107 135/189/134 138/193/138
f 143/202/143 146/203/144 145/204/145 144/205/146
f 142/199/142 107/206/110 141/195/140
f 141/195/140 107/206/110 106/207/108 138/197/138
f 108/208/112 107/206/110 142/199/142 147/209/147
f 119/210/119 120/211/121 143/202/143 144/205/146
f 105/200/107 119/210/119 148/212/148 134/190/135
f 148/212/148 119/210/119 144/205/146
f 120/211/121 108/208/112 147/209/147 143/202/143
f 136/191/136 150/213/149 149/214/150 137/192/137
f 150/215/149 151/216/151 149/217/150
f 151/218/151 140/196/141 137/198/137 149/219/150
f 133/188/133 152/220/152 150/213/149 136/191/136
f 153/221/153 139/194/139 140/196/141 151/218/151
f 134/190/135 154/222/154 152/220/152 133/188/133
f 152/223/152 153/224/153 151/216/151 150/215/149
f 155/225/155 142/199/142 139/194/139 153/221/153
f 154/226/154 155/227/155 153/224/153 152/223/152
f 147/209/147 156/228/156 146/203/144 143/202/143
f 157/229/157 148/212/148 144/205/146 145/204/145
f 156/230/156 157/231/157 145/232/145 146/233/144
f 148/212/148 157/229/157 154/222/154 134/190/135
f 157/231/157 156/230/156 155/227/155 154/226/154
f 156/228/156 147/209/147 142/199/142 155/225/155
