# Blender v2.92.0 OBJ File: 'New Nilfgaardian model work.blend'
# www.blender.org
mtllib Lower Gorget.mtl
o Lower_gorget_Lower_plate_done.055
v 0.021722 0.624972 -0.115280
v 0.025852 0.563553 -0.078393
v 0.001750 0.623296 -0.129273
v 0.041041 0.626334 -0.101580
v 0.055196 0.567295 -0.071600
v 0.066897 0.632609 -0.070312
v 0.080957 0.573155 -0.057935
v 0.070286 0.637582 -0.019810
v 0.107080 0.581957 -0.040001
v 0.080711 0.638186 -0.003226
v 0.142091 0.596930 -0.024617
v 0.085882 0.640263 0.015672
v 0.150544 0.613660 0.013644
v 0.087915 0.647858 0.044017
v 0.085699 0.645159 0.062097
v 0.154656 0.620470 0.048828
v 0.171585 0.585068 0.049887
v 0.153647 0.618377 0.073703
v 0.170975 0.581760 0.074493
v 0.146561 0.608022 0.107735
v 0.079933 0.642947 0.079053
v 0.168411 0.570981 0.107191
v 0.100158 0.598697 0.123602
v 0.146053 0.540545 0.137835
v 0.148883 0.479616 0.152112
v 0.166799 0.540871 0.136743
v 0.106618 0.534776 0.144316
v 0.069324 0.531611 0.146662
v 0.111443 0.475101 0.154541
v 0.111943 0.427932 0.158209
v 0.073766 0.470963 0.152806
v 0.078496 0.404789 0.156073
v 0.037300 0.469154 0.150564
v 0.039308 0.375340 0.153451
v 0.034150 0.530177 0.145566
v 0.001750 0.468829 0.146357
v 0.001750 0.531147 0.142157
v 0.001750 0.372908 0.149721
v -0.033800 0.469154 0.150564
v -0.070266 0.470963 0.152806
v -0.035809 0.375340 0.153451
v -0.030650 0.530177 0.145566
v -0.065824 0.531611 0.146662
v -0.026702 0.591245 0.129322
v -0.017051 0.628614 0.098365
v 0.001750 0.590758 0.128830
v -0.058912 0.594623 0.128049
v -0.040633 0.631564 0.094624
v -0.096658 0.598697 0.123602
v -0.143062 0.608022 0.107735
v -0.103118 0.534776 0.144316
v -0.059683 0.635548 0.090100
v -0.076433 0.642947 0.079053
v -0.082199 0.645159 0.062097
v -0.084416 0.647858 0.044017
v -0.150147 0.618377 0.073703
v -0.167475 0.581760 0.074493
v -0.151157 0.620470 0.048828
v -0.147045 0.613660 0.013644
v -0.168085 0.585068 0.049887
v -0.164323 0.578805 0.014693
v -0.156719 0.562104 -0.021356
v -0.132130 0.527727 -0.075508
v -0.150880 0.529980 -0.064713
v -0.138591 0.596930 -0.024617
v -0.077211 0.638186 -0.003226
v -0.103580 0.581957 -0.040001
v -0.077457 0.573155 -0.057935
v -0.066786 0.637582 -0.019810
v -0.063397 0.632609 -0.070312
v -0.037541 0.626334 -0.101580
v -0.051696 0.567295 -0.071600
v -0.018222 0.624972 -0.115280
v -0.022352 0.563553 -0.078393
v 0.001750 0.563159 -0.078135
v -0.025062 0.513944 -0.109715
v -0.055472 0.516923 -0.103401
v 0.001750 0.513476 -0.109579
v -0.028510 0.455216 -0.130136
v -0.029825 0.426853 -0.132277
v 0.001750 0.453487 -0.130198
v -0.057628 0.458747 -0.126723
v -0.060125 0.429891 -0.130058
v -0.094632 0.463173 -0.111581
v -0.097757 0.429703 -0.115837
v -0.092329 0.520725 -0.087975
v -0.144658 0.467743 -0.096334
v -0.063792 0.413690 -0.139356
v -0.031285 0.397898 -0.143444
v -0.013345 0.391208 -0.144102
v 0.001750 0.397656 -0.143810
v 0.034785 0.397898 -0.143444
v 0.001750 0.426079 -0.132040
v 0.001750 0.394411 -0.145060
v 0.016845 0.391208 -0.144102
v 0.033325 0.426853 -0.132277
v 0.032010 0.455216 -0.130136
v 0.063624 0.429891 -0.130058
v 0.101257 0.429703 -0.115837
v 0.061128 0.458747 -0.126723
v 0.067291 0.413690 -0.139356
v 0.058972 0.516923 -0.103401
v 0.098131 0.463173 -0.111581
v 0.095828 0.520725 -0.087975
v 0.148158 0.467743 -0.096334
v 0.135630 0.527727 -0.075508
v 0.154379 0.529980 -0.064713
v 0.160218 0.562104 -0.021356
v 0.167822 0.578805 0.014693
v 0.028562 0.513944 -0.109715
v -0.082382 0.640263 0.015672
v -0.164911 0.570981 0.107191
v -0.163299 0.540871 0.136743
v -0.142554 0.540545 0.137835
v -0.145383 0.479616 0.152112
v -0.108443 0.427932 0.158209
v -0.107944 0.475101 0.154541
v -0.074996 0.404789 0.156073
v 0.030201 0.591245 0.129322
v 0.001750 0.627710 0.100425
v 0.020551 0.628614 0.098365
v 0.044133 0.631564 0.094624
v 0.063183 0.635548 0.090100
v 0.062412 0.594623 0.128049
vt 0.692559 0.241071
vt 0.723907 0.238372
vt 0.729119 0.300868
vt 0.709853 0.297088
vt 0.748694 0.237967
vt 0.749065 0.306817
vt 0.663699 0.246252
vt 0.678134 0.296514
vt 0.643571 0.312679
vt 0.634110 0.254287
vt 0.599225 0.258996
vt 0.628253 0.314372
vt 0.615152 0.322626
vt 0.575829 0.281228
vt 0.554617 0.298810
vt 0.599110 0.339184
vt 0.930216 0.323704
vt 0.875095 0.346190
vt 0.869630 0.333145
vt 0.922408 0.306569
vt 0.559740 0.255499
vt 0.537217 0.272702
vt 0.947949 0.288389
vt 0.957004 0.306351
vt 0.936156 0.263178
vt 0.911542 0.283635
vt 0.861596 0.321437
vt 0.846537 0.311887
vt 0.875561 0.272220
vt 0.916672 0.228466
vt 0.882719 0.221373
vt 0.934764 0.229378
vt 0.888115 0.173776
vt 0.920459 0.178372
vt 0.851214 0.217786
vt 0.855789 0.170032
vt 0.844648 0.268238
vt 0.860407 0.117437
vt 0.889304 0.136140
vt 0.826454 0.093886
vt 0.824479 0.168390
vt 0.821392 0.216491
vt 0.793769 0.168187
vt 0.793826 0.091994
vt 0.793686 0.217505
vt 0.821392 0.216491
vt 0.824479 0.168390
vt 0.826454 0.093886
vt 0.855789 0.170032
vt 0.860407 0.117437
vt 0.851214 0.217786
vt 0.817670 0.265685
vt 0.844648 0.268238
vt 0.793551 0.265477
vt 0.809567 0.303913
vt 0.829961 0.307502
vt 0.793394 0.302292
vt 0.875561 0.272220
vt 0.846537 0.311887
vt 0.882719 0.221373
vt 0.916672 0.228466
vt 0.911542 0.283635
vt 0.861596 0.321437
vt 0.869630 0.333145
vt 0.922408 0.306569
vt 0.930216 0.323704
vt 0.875095 0.346190
vt 0.936156 0.263178
vt 0.947949 0.288389
vt 0.957004 0.306351
vt 0.559740 0.255499
vt 0.537217 0.272702
vt 0.554617 0.298810
vt 0.575829 0.281228
vt 0.599110 0.339184
vt 0.615152 0.322626
vt 0.599225 0.258996
vt 0.582286 0.233220
vt 0.622415 0.194960
vt 0.603917 0.196098
vt 0.628253 0.314372
vt 0.643571 0.312679
vt 0.634110 0.254287
vt 0.659724 0.191666
vt 0.663699 0.246252
vt 0.678134 0.296514
vt 0.709853 0.297088
vt 0.692559 0.241071
vt 0.729119 0.300868
vt 0.723907 0.238372
vt 0.723763 0.184410
vt 0.748447 0.184647
vt 0.695414 0.187260
vt 0.696818 0.136085
vt 0.722045 0.133392
vt 0.748226 0.132188
vt 0.721124 0.110942
vt 0.694870 0.112898
vt 0.748135 0.110424
vt 0.663115 0.141052
vt 0.661094 0.114906
vt 0.619403 0.143784
vt 0.692782 0.098171
vt 0.720322 0.086704
vt 0.748034 0.086355
vt 0.748024 0.083647
vt 0.735272 0.081459
vt 0.720322 0.086704
vt 0.721124 0.110942
vt 0.735272 0.081459
vt 0.722045 0.133392
vt 0.694870 0.112898
vt 0.692782 0.098171
vt 0.696818 0.136085
vt 0.661094 0.114906
vt 0.663115 0.141052
vt 0.695414 0.187260
vt 0.659724 0.191666
vt 0.723763 0.184410
vt 0.619403 0.143784
vt 0.622415 0.194960
vt 0.603917 0.196098
vt 0.582286 0.233220
vt 0.934764 0.229378
vt 0.888115 0.173776
vt 0.920459 0.178372
vt 0.889304 0.136140
vt 0.817670 0.265685
vt 0.809567 0.303913
vt 0.829961 0.307502
vn 0.4222 0.1792 -0.8886
vn 0.2251 0.0515 -0.9730
vn 0.3211 -0.4969 -0.8062
vn 0.5079 -0.2926 -0.8102
vn -0.0000 0.1514 -0.9885
vn 0.0000 -0.3284 -0.9445
vn 0.5202 0.2197 -0.8253
vn 0.6669 -0.1049 -0.7377
vn 0.5316 0.5237 -0.6657
vn 0.8148 0.3892 -0.4297
vn 0.5561 0.5441 -0.6282
vn 0.3757 0.5732 -0.7283
vn 0.3915 0.5506 -0.7373
vn 0.3005 0.6167 -0.7276
vn 0.6837 0.6197 -0.3853
vn 0.3862 0.8450 -0.3701
vn 0.3809 0.8719 -0.3077
vn 0.6569 0.6911 -0.3013
vn 0.6768 0.7343 -0.0520
vn 0.3714 0.9267 -0.0580
vn 0.3563 0.9253 0.1300
vn 0.6969 0.7088 0.1088
vn 0.8646 0.4160 -0.2818
vn 0.9007 0.4317 -0.0495
vn 0.8996 0.4299 0.0764
vn 0.6554 0.4495 0.6069
vn 0.8506 0.4533 0.2666
vn 0.5993 0.7403 0.3046
vn 0.4904 0.6295 0.6027
vn 0.3211 0.8976 0.3022
vn 0.2086 0.8313 0.5153
vn 0.0966 0.7278 0.6790
vn 0.1382 0.5633 0.8146
vn 0.1411 0.3576 0.9232
vn 0.1283 0.2795 0.9515
vn 0.0370 0.5146 0.8567
vn 0.0699 0.1379 0.9880
vn 0.0725 0.1699 0.9828
vn -0.0393 0.0975 0.9945
vn 0.0264 0.2191 0.9754
vn -0.0038 0.1975 0.9803
vn -0.0531 0.0782 0.9955
vn 0.0424 0.4697 0.8818
vn 0.0150 0.4865 0.8735
vn -0.0778 0.0423 0.9961
vn -0.0762 0.0574 0.9954
vn 0.0552 0.0780 0.9954
vn -0.0977 0.0329 0.9947
vn -0.0869 0.0562 0.9946
vn -0.0602 0.1647 0.9845
vn -0.0974 0.0511 0.9939
vn 0.0000 -0.0643 0.9979
vn -0.0755 0.1596 0.9843
vn 0.0602 0.1647 0.9845
vn 0.0869 0.0562 0.9946
vn 0.0977 0.0329 0.9947
vn 0.0531 0.0782 0.9955
vn 0.0778 0.0423 0.9961
vn 0.0038 0.1975 0.9803
vn 0.0203 0.4512 0.8922
vn -0.0150 0.4865 0.8735
vn -0.0243 0.4398 0.8978
vn -0.0009 0.6388 0.7694
vn -0.0059 0.6659 0.7460
vn -0.0000 0.6301 0.7765
vn -0.0424 0.4697 0.8818
vn -0.0194 0.6796 0.7333
vn -0.0264 0.2191 0.9754
vn -0.1411 0.3576 0.9232
vn -0.1283 0.2795 0.9515
vn -0.1382 0.5633 0.8146
vn -0.4904 0.6295 0.6027
vn -0.0966 0.7278 0.6790
vn -0.2086 0.8313 0.5153
vn -0.3211 0.8976 0.3022
vn -0.5993 0.7403 0.3046
vn -0.6768 0.7343 -0.0520
vn -0.6969 0.7088 0.1088
vn -0.3563 0.9253 0.1300
vn -0.3714 0.9267 -0.0580
vn -0.6554 0.4495 0.6069
vn -0.8506 0.4533 0.2666
vn -0.8996 0.4299 0.0764
vn -0.9007 0.4317 -0.0495
vn -0.8646 0.4160 -0.2818
vn -0.6569 0.6911 -0.3013
vn -0.3809 0.8719 -0.3077
vn -0.6837 0.6197 -0.3853
vn -0.8395 0.4041 -0.3632
vn -0.7075 0.4056 -0.5788
vn -0.3215 0.4918 -0.8092
vn -0.3230 0.6422 -0.6951
vn -0.3915 0.5506 -0.7373
vn -0.3862 0.8450 -0.3701
vn -0.3005 0.6167 -0.7276
vn -0.5561 0.5441 -0.6282
vn -0.3757 0.5732 -0.7283
vn -0.2294 0.4664 -0.8543
vn -0.5316 0.5237 -0.6657
vn -0.8148 0.3892 -0.4297
vn -0.5202 0.2197 -0.8253
vn -0.6669 -0.1049 -0.7377
vn -0.5079 -0.2926 -0.8102
vn -0.4222 0.1792 -0.8886
vn -0.3211 -0.4969 -0.8062
vn -0.2251 0.0515 -0.9730
vn -0.0514 0.4359 -0.8985
vn -0.0134 0.4320 -0.9018
vn -0.2142 0.4489 -0.8675
vn -0.2184 0.2426 -0.9452
vn -0.0441 0.2114 -0.9764
vn -0.0088 0.1954 -0.9807
vn -0.0095 0.2458 -0.9693
vn -0.1815 0.3035 -0.9354
vn -0.0046 0.2258 -0.9742
vn -0.3386 0.2669 -0.9023
vn -0.3043 0.4577 -0.8354
vn -0.3484 0.2337 -0.9077
vn -0.2683 0.3210 -0.9083
vn -0.2563 0.2527 -0.9330
vn -0.2761 0.1466 -0.9499
vn -0.0988 0.4616 -0.8816
vn 0.0099 0.3591 -0.9332
vn 0.0146 0.2504 -0.9680
vn -0.0000 0.0951 -0.9955
vn -0.0351 0.1270 -0.9913
vn -0.0099 0.3591 -0.9332
vn 0.0095 0.2458 -0.9693
vn 0.0351 0.1270 -0.9913
vn 0.0441 0.2114 -0.9764
vn 0.1815 0.3035 -0.9354
vn 0.0988 0.4616 -0.8816
vn 0.2184 0.2426 -0.9452
vn 0.3484 0.2337 -0.9077
vn 0.3386 0.2669 -0.9023
vn 0.2142 0.4489 -0.8675
vn 0.3043 0.4577 -0.8354
vn 0.0514 0.4359 -0.8985
vn 0.2683 0.3210 -0.9083
vn 0.2761 0.1466 -0.9499
vn 0.2563 0.2527 -0.9330
vn 0.2294 0.4664 -0.8543
vn 0.3215 0.4918 -0.8092
vn 0.3230 0.6422 -0.6951
vn 0.7075 0.4056 -0.5788
vn 0.8395 0.4041 -0.3632
vn -0.0370 0.5146 0.8567
vn -0.0699 0.1379 0.9880
vn -0.0725 0.1699 0.9828
vn -0.0552 0.0780 0.9954
vn 0.0393 0.0975 0.9945
vn 0.0762 0.0574 0.9954
vn -0.0203 0.4512 0.8922
vn 0.0009 0.6388 0.7694
vn 0.0059 0.6659 0.7460
vn 0.0194 0.6796 0.7333
usemtl Default_OBJ.031
s 1
f 5/1/1 2/2/2 1/3/3 4/4/4
f 1/3/3 2/2/2 75/5/5 3/6/6
f 7/7/7 5/1/1 4/4/4 6/8/8
f 7/7/9 6/8/10 8/9/11 9/10/12
f 11/11/13 9/10/12 8/9/11 10/12/14
f 11/11/15 10/12/16 12/13/17 13/14/18
f 16/15/19 13/14/18 12/13/17 14/16/20
f 16/17/19 14/18/20 15/19/21 18/20/22
f 109/21/23 13/14/18 16/15/19 17/22/24
f 19/23/25 17/24/24 16/17/19 18/20/22
f 22/25/26 19/23/27 18/20/28 20/26/29
f 20/26/29 18/20/28 15/19/30 21/27/31
f 20/26/29 21/27/31 123/28/32 23/29/33
f 24/30/34 22/25/26 20/26/29
f 24/30/34 20/26/29 23/29/33 27/31/35
f 26/32/36 22/25/26 24/30/34
f 29/33/37 25/34/38 24/30/34 27/31/35
f 26/32/36 24/30/34 25/34/38
f 29/33/39 27/31/40 28/35/41 31/36/42
f 27/31/40 23/29/43 124/37/44 28/35/41
f 32/38/45 30/39/46 29/33/39 31/36/42
f 30/39/47 25/34/38 29/33/37
f 34/40/48 32/38/45 31/36/42 33/41/49
f 33/41/49 31/36/42 28/35/41 35/42/50
f 36/43/51 38/44/52 34/40/48 33/41/49
f 35/42/50 37/45/53 36/43/51 33/41/49
f 42/46/54 39/47/55 36/43/51 37/45/53
f 36/43/51 39/47/55 41/48/56 38/44/52
f 41/48/56 39/47/55 40/49/57 118/50/58
f 39/47/55 42/46/54 43/51/59 40/49/57
f 43/51/59 42/46/54 44/52/60 47/53/61
f 42/46/54 37/45/53 46/54/62 44/52/60
f 47/53/61 44/52/60 45/55/63 48/56/64
f 44/52/60 46/54/62 120/57/65 45/55/63
f 49/58/66 47/53/61 48/56/64 52/59/67
f 51/60/68 43/51/59 47/53/61 49/58/66
f 114/61/69 51/60/70 49/58/71 50/62/72
f 50/62/72 49/58/71 52/59/73 53/63/74
f 50/62/72 53/63/74 54/64/75 56/65/76
f 58/66/77 56/65/78 54/64/79 55/67/80
f 112/68/81 50/62/72 56/65/76 57/69/82
f 57/69/83 56/65/78 58/66/77 60/70/84
f 61/71/85 60/72/84 58/73/77 59/74/86
f 58/73/77 55/75/80 111/76/87 59/74/86
f 61/71/85 59/74/86 65/77/88 62/78/89
f 62/78/90 63/79/91 64/80/92
f 63/79/91 62/78/90 65/77/93
f 65/77/88 59/74/86 111/76/87 66/81/94
f 65/77/93 66/81/95 69/82/96 67/83/97
f 63/79/91 65/77/93 67/83/97
f 86/84/98 63/79/91 67/83/97 68/85/99
f 68/85/99 67/83/97 69/82/96 70/86/100
f 68/85/101 70/86/102 71/87/103 72/88/104
f 72/88/104 71/87/103 73/89/105 74/90/106
f 73/89/105 3/6/6 75/5/5 74/90/106
f 76/91/107 74/90/106 75/5/5 78/92/108
f 76/91/107 77/93/109 72/88/104 74/90/106
f 82/94/110 77/93/109 76/91/107 79/95/111
f 79/95/111 76/91/107 78/92/108 81/96/112
f 82/94/110 79/95/111 80/97/113 83/98/114
f 79/95/111 81/96/112 93/99/115 80/97/113
f 84/100/116 86/84/117 77/93/109 82/94/110
f 85/101/118 84/100/116 82/94/110 83/98/114
f 87/102/119 84/100/120 85/101/121
f 87/102/119 63/79/91 86/84/98 84/100/120
f 63/79/91 87/102/119 64/80/92
f 86/84/117 68/85/101 72/88/104 77/93/109
f 85/101/118 83/98/114 88/103/122
f 83/98/114 80/97/113 89/104/123 88/103/122
f 89/104/123 91/105/124 94/106/125 90/107/126
f 89/104/123 80/97/113 93/99/115 91/105/124
f 92/108/127 91/105/124 93/99/115 96/109/128
f 92/108/127 95/110/129 94/106/125 91/105/124
f 97/111/130 96/109/128 93/99/115 81/96/112
f 98/112/131 101/113/132 92/108/127 96/109/128
f 100/114/133 98/112/131 96/109/128 97/111/130
f 99/115/134 98/112/131 100/114/133 103/116/135
f 99/115/134 101/113/132 98/112/131
f 103/116/135 100/114/133 102/117/136 104/118/137
f 100/114/133 97/111/130 110/119/138 102/117/136
f 105/120/139 99/115/140 103/116/141
f 105/120/139 103/116/141 104/118/142 106/121/143
f 106/121/143 107/122/144 105/120/139
f 108/123/145 107/122/144 106/121/143
f 106/121/143 11/11/13 108/123/145
f 109/21/23 108/123/146 11/11/15 13/14/18
f 106/121/143 9/10/12 11/11/13
f 104/118/142 7/7/9 9/10/12 106/121/143
f 104/118/137 102/117/136 5/1/1 7/7/7
f 110/119/138 2/2/2 5/1/1 102/117/136
f 110/119/138 78/92/108 75/5/5 2/2/2
f 97/111/130 81/96/112 78/92/108 110/119/138
f 114/61/69 50/62/72 112/68/81
f 113/124/147 114/61/69 112/68/81
f 117/125/148 51/60/70 114/61/69 115/126/149
f 113/124/147 115/126/149 114/61/69
f 116/127/150 117/125/148 115/126/149
f 118/50/58 40/49/57 117/125/151 116/127/152
f 117/125/151 40/49/57 43/51/59 51/60/68
f 35/42/50 119/128/153 46/54/62 37/45/53
f 119/128/153 121/129/154 120/57/65 46/54/62
f 124/37/44 122/130/155 121/129/154 119/128/153
f 23/29/43 123/28/156 122/130/155 124/37/44
f 28/35/41 124/37/44 119/128/153 35/42/50
