# Blender v2.92.0 OBJ File: 'New Nilfgaardian model work.blend'
# www.blender.org
mtllib Upper Gorget.mtl
o Upper_gorget_Lower_plate_done.082
v 0.051410 0.682187 -0.134437
v 0.069333 0.678215 -0.103189
v 0.050577 0.702942 -0.116435
v 0.034762 0.685309 -0.154145
v 0.045808 0.661614 -0.124280
v 0.030086 0.661453 -0.146206
v 0.067654 0.660577 -0.087174
v 0.040903 0.626167 -0.101926
v 0.015654 0.624254 -0.119596
v 0.066719 0.632248 -0.070224
v 0.028203 0.624889 -0.106270
v 0.065097 0.661720 -0.081200
v 0.066325 0.679488 -0.095621
v 0.031433 0.671905 -0.133450
v 0.001750 0.672358 -0.141657
v 0.035040 0.707679 -0.127511
v 0.067443 0.699621 -0.089696
v 0.001750 0.710403 -0.144699
v 0.037747 0.707569 -0.133500
v 0.001750 0.709280 -0.149384
v 0.001750 0.689029 -0.164970
v -0.034248 0.707569 -0.133500
v -0.047077 0.702942 -0.116435
v -0.031262 0.685309 -0.154145
v -0.031540 0.707679 -0.127511
v -0.063944 0.699621 -0.089696
v -0.027933 0.671905 -0.133450
v -0.062825 0.679488 -0.095621
v -0.024704 0.624889 -0.106270
v -0.061597 0.661720 -0.081200
v -0.064154 0.660577 -0.087174
v -0.063219 0.632248 -0.070224
v -0.037403 0.626167 -0.101926
v -0.012155 0.624254 -0.119596
v -0.042308 0.661614 -0.124280
v -0.026586 0.661453 -0.146206
v -0.047910 0.682187 -0.134437
v -0.065833 0.678215 -0.103189
v -0.066855 0.698314 -0.094684
v 0.001750 0.661536 -0.157893
v 0.001750 0.623168 -0.129491
v 0.001750 0.624835 -0.114441
v 0.070355 0.698314 -0.094684
vt 0.656655 0.433821
vt 0.648065 0.458334
vt 0.635069 0.457408
vt 0.642430 0.437249
vt 0.622985 0.446829
vt 0.631269 0.429363
vt 0.617966 0.460277
vt 0.631319 0.470381
vt 0.643448 0.472130
vt 0.672709 0.458313
vt 0.669504 0.477991
vt 0.677007 0.432244
vt 0.603515 0.510768
vt 0.610771 0.540149
vt 0.595083 0.540921
vt 0.573689 0.513913
vt 0.594638 0.544102
vt 0.581642 0.549191
vt 0.581876 0.543962
vt 0.569771 0.542218
vt 0.557225 0.522340
vt 0.570398 0.496972
vt 0.600042 0.494251
vt 0.548109 0.499017
vt 0.568793 0.544536
vt 0.561162 0.534069
vt 0.553570 0.523447
vt 0.545247 0.499280
vt 0.628450 0.486961
vt 0.613827 0.486342
vt 0.629909 0.503723
vt 0.615752 0.512664
vt 0.552827 0.474425
vt 0.549032 0.474001
vt 0.561546 0.452596
vt 0.554564 0.462176
vt 0.560162 0.450494
vt 0.632552 0.516967
vt 0.619617 0.526487
vt 0.570550 0.479715
vt 0.573132 0.448677
vt 0.586671 0.449263
vt 0.600451 0.477378
vt 0.602238 0.447167
vt 0.585655 0.446217
vt 0.571949 0.443578
vt 0.670133 0.519241
vt 0.672216 0.545580
vt 0.652070 0.542291
vt 0.645579 0.517140
vt 0.642143 0.503004
vt 0.668600 0.499363
vt 0.638185 0.537675
vt 0.626398 0.544591
vt 0.641244 0.487501
vt 0.667065 0.488593
vn 0.7657 -0.4100 -0.4955
vn 0.7013 -0.4659 -0.5395
vn 0.8178 -0.0216 -0.5752
vn 0.8382 -0.1183 -0.5324
vn 0.7773 0.3653 -0.5121
vn 0.7941 0.3282 -0.5116
vn 0.6082 0.5044 -0.6129
vn 0.5685 0.1046 -0.8160
vn 0.5144 -0.4648 -0.7206
vn 0.6990 -0.4618 -0.5460
vn 0.4915 -0.5760 -0.6531
vn 0.7722 -0.3831 -0.5068
vn -0.5266 0.4137 0.7427
vn -0.7291 0.3177 0.6062
vn -0.7195 0.3700 0.5877
vn -0.5277 0.2119 0.8226
vn 0.9160 0.1833 0.3569
vn 0.9162 0.2035 0.3451
vn 0.9162 0.1959 0.3496
vn 0.9137 -0.0017 0.4064
vn 0.9150 0.0091 0.4035
vn -0.7498 0.2068 0.6286
vn -0.7451 -0.0776 0.6624
vn -0.5827 -0.0503 0.8111
vn 0.0002 0.7739 0.6333
vn 0.0000 0.7594 0.6506
vn -0.0000 0.3817 0.9243
vn 0.3154 0.9474 -0.0545
vn 0.1926 0.9785 -0.0745
vn 0.2259 0.9717 -0.0693
vn -0.0000 0.9719 -0.2353
vn 0.0000 0.9985 0.0541
vn -0.0125 0.1990 -0.9799
vn 0.0646 0.7786 -0.6242
vn 0.0125 0.1990 -0.9799
vn -0.5685 0.1046 -0.8160
vn -0.6082 0.5044 -0.6129
vn -0.0646 0.7786 -0.6242
vn -0.2259 0.9717 -0.0693
vn -0.1926 0.9785 -0.0745
vn -0.3154 0.9474 -0.0545
vn -0.8178 -0.0216 -0.5752
vn -0.7773 0.3653 -0.5121
vn 0.5277 0.2119 0.8226
vn 0.5827 -0.0503 0.8111
vn 0.7451 -0.0776 0.6624
vn 0.7498 0.2068 0.6286
vn 0.7195 0.3700 0.5877
vn 0.5266 0.4137 0.7427
vn 0.7291 0.3177 0.6062
vn -0.9160 0.1833 0.3569
vn -0.9162 0.1959 0.3496
vn -0.9162 0.2035 0.3451
vn -0.9150 0.0091 0.4034
vn -0.9137 -0.0017 0.4064
vn -0.6990 -0.4618 -0.5460
vn -0.7722 -0.3831 -0.5068
vn -0.7657 -0.4100 -0.4955
vn -0.7013 -0.4659 -0.5395
vn -0.5144 -0.4648 -0.7206
vn -0.4915 -0.5760 -0.6531
vn -0.8382 -0.1183 -0.5324
vn -0.7941 0.3282 -0.5116
vn -0.8675 -0.2082 0.4518
vn -0.0141 -0.4575 -0.8891
vn -0.0907 -0.7762 -0.6239
vn 0.0141 -0.4575 -0.8891
vn 0.0907 -0.7762 -0.6239
vn 0.8675 -0.2082 0.4518
usemtl Default_OBJ.022
s 1
f 7/1/1 5/2/2 1/3/3 2/4/4
f 1/3/3 3/5/5 43/6/6 2/4/4
f 19/7/7 3/5/5 1/3/3 4/8/8
f 6/9/9 4/8/8 1/3/3 5/2/2
f 8/10/10 9/11/11 6/9/9 5/2/2
f 8/10/10 5/2/2 7/1/1 10/12/12
f 11/13/13 10/14/14 12/15/15 14/16/16
f 10/14/17 7/17/18 12/15/19
f 12/15/19 7/17/18 2/18/20 13/19/21
f 12/15/15 13/19/22 14/16/16
f 14/16/16 13/19/22 17/20/23 16/21/24
f 15/22/25 42/23/26 11/13/13 14/16/16
f 14/16/16 16/21/24 18/24/27 15/22/25
f 17/20/28 43/25/28 3/26/28 19/27/29 16/21/30
f 16/21/30 19/27/29 20/28/31 18/24/32
f 21/29/33 20/30/34 19/7/7 4/8/8
f 21/29/35 24/31/36 22/32/37 20/30/38
f 25/33/39 18/24/32 20/28/31 22/34/40
f 26/35/41 25/33/39 22/34/40 23/36/41 39/37/41
f 22/32/37 24/31/36 37/38/42 23/39/43
f 27/40/44 25/33/45 26/35/46 28/41/47
f 27/40/44 15/22/25 18/24/27 25/33/45
f 30/42/48 27/40/44 28/41/47
f 15/22/25 27/40/44 29/43/49 42/23/26
f 29/43/49 27/40/44 30/42/48 32/44/50
f 32/44/51 30/42/52 31/45/53
f 30/42/52 28/41/54 38/46/55 31/45/53
f 33/47/56 32/48/57 31/49/58 35/50/59
f 33/47/56 35/50/59 36/51/60 34/52/61
f 36/51/60 35/50/59 37/38/42 24/31/36
f 31/49/58 38/53/62 37/38/42 35/50/59
f 37/38/42 38/53/62 39/54/63 23/39/43
f 28/41/54 26/35/64 39/37/64 38/46/55
f 34/52/61 36/51/60 40/55/65 41/56/66
f 40/55/65 36/51/60 24/31/36 21/29/35
f 40/55/67 21/29/33 4/8/8 6/9/9
f 9/11/11 41/56/68 40/55/67 6/9/9
f 13/19/21 2/18/20 43/25/69 17/20/69
